<svg width="65" height="64" viewBox="0 0 65 64" fill="none" xmlns="http://www.w3.org/2000/svg">
<g style="mix-blend-mode:multiply">
<path d="M7.1364 43.2198C5.48026 42.3245 5.48026 40.8728 7.1364 39.9775L29.6267 27.8186C31.2828 26.9233 33.9679 26.9233 35.6241 27.8186L58.1143 39.9775C59.7705 40.8728 59.7705 42.3245 58.1143 43.2198L35.6241 55.3786C33.9679 56.274 31.2828 56.274 29.6267 55.3786L7.1364 43.2198Z" fill="url(#paint0_linear_940_383)"/>
</g>
<path d="M6.9987 33.6212C5.34257 32.7258 5.34257 31.2742 6.9987 30.3788L29.489 18.22C31.1451 17.3246 33.8302 17.3246 35.4864 18.22L57.9767 30.3788C59.6328 31.2742 59.6328 32.7258 57.9767 33.6212L35.4864 45.78C33.8302 46.6754 31.1451 46.6754 29.489 45.78L6.9987 33.6212Z" fill="url(#paint1_linear_940_383)"/>
<g style="mix-blend-mode:multiply">
<path d="M7.1364 24.0225C5.48026 23.1272 5.48026 21.6755 7.1364 20.7802L29.6267 8.62136C31.2828 7.72601 33.9679 7.72601 35.6241 8.62136L58.1143 20.7802C59.7705 21.6755 59.7705 23.1272 58.1143 24.0225L35.6241 36.1814C33.9679 37.0767 31.2828 37.0767 29.6267 36.1814L7.1364 24.0225Z" fill="url(#paint2_linear_940_383)"/>
</g>
<defs>
<linearGradient id="paint0_linear_940_383" x1="18.4478" y1="33.8623" x2="36.5531" y2="67.3516" gradientUnits="userSpaceOnUse">
<stop stop-color="#0098EE"/>
<stop offset="1" stop-color="#FF1CCD"/>
</linearGradient>
<linearGradient id="paint1_linear_940_383" x1="9.97984" y1="34.0693" x2="56.3964" y2="19.2842" gradientUnits="userSpaceOnUse">
<stop stop-color="#F213A4"/>
<stop offset="0.1517" stop-color="#E011A7"/>
<stop offset="0.4554" stop-color="#B20DAF"/>
<stop offset="0.8789" stop-color="#6806BB"/>
<stop offset="1" stop-color="#5204BF"/>
</linearGradient>
<linearGradient id="paint2_linear_940_383" x1="18.4478" y1="14.665" x2="36.5531" y2="48.1543" gradientUnits="userSpaceOnUse">
<stop stop-color="#0098EE"/>
<stop offset="1" stop-color="#FF1CCD"/>
</linearGradient>
</defs>
</svg>
