<svg width="64" height="64" viewBox="0 0 64 64" fill="none" xmlns="http://www.w3.org/2000/svg">
<g clip-path="url(#clip0_940_555)">
<g clip-path="url(#clip1_940_555)">
<path d="M6.4987 41.4239C4.84257 40.5286 4.84257 39.0769 6.4987 38.1816L28.989 26.0227C30.6451 25.1274 33.3302 25.1274 34.9864 26.0227L57.4767 38.1816C59.1328 39.0769 59.1328 40.5286 57.4767 41.4239L34.9864 53.5827C33.3302 54.4781 30.6451 54.4781 28.989 53.5827L6.4987 41.4239Z" fill="url(#paint0_linear_940_555)"/>
<path d="M6.4987 42.0225C4.84257 41.1272 4.84257 39.6755 6.4987 38.7802L28.989 26.6214C30.6451 25.726 33.3302 25.726 34.9864 26.6214L57.4767 38.7802C59.1328 39.6755 59.1328 41.1272 57.4767 42.0225L34.9864 54.1814C33.3302 55.0767 30.6451 55.0767 28.989 54.1814L6.4987 42.0225Z" fill="url(#paint1_linear_940_555)"/>
<path d="M6.4987 43.0225C4.84257 42.1272 4.84257 40.6755 6.4987 39.7802L28.989 27.6214C30.6451 26.726 33.3302 26.726 34.9864 27.6214L57.4767 39.7802C59.1328 40.6755 59.1328 42.1272 57.4767 43.0225L34.9864 55.1814C33.3302 56.0767 30.6451 56.0767 28.989 55.1814L6.4987 43.0225Z" fill="url(#paint2_linear_940_555)"/>
<path d="M6.4987 44.0225C4.84257 43.1272 4.84257 41.6755 6.4987 40.7802L28.989 28.6214C30.6451 27.726 33.3302 27.726 34.9864 28.6214L57.4767 40.7802C59.1328 41.6755 59.1328 43.1272 57.4767 44.0225L34.9864 56.1814C33.3302 57.0767 30.6451 57.0767 28.989 56.1814L6.4987 44.0225Z" fill="url(#paint3_linear_940_555)"/>
<path d="M6.4987 45.0225C4.84257 44.1272 4.84257 42.6755 6.4987 41.7802L28.989 29.6214C30.6451 28.726 33.3302 28.726 34.9864 29.6214L57.4767 41.7802C59.1328 42.6755 59.1328 44.1272 57.4767 45.0225L34.9864 57.1814C33.3302 58.0767 30.6451 58.0767 28.989 57.1814L6.4987 45.0225Z" fill="url(#paint4_linear_940_555)"/>
<path d="M6.4987 46.0225C4.84257 45.1272 4.84257 43.6755 6.4987 42.7802L28.989 30.6214C30.6451 29.726 33.3302 29.726 34.9864 30.6214L57.4767 42.7802C59.1328 43.6755 59.1328 45.1272 57.4767 46.0225L34.9864 58.1814C33.3302 59.0767 30.6451 59.0767 28.989 58.1814L6.4987 46.0225Z" fill="url(#paint5_linear_940_555)"/>
<path d="M6.4987 47.0225C4.84257 46.1272 4.84257 44.6755 6.4987 43.7802L28.989 31.6214C30.6451 30.726 33.3302 30.726 34.9864 31.6214L57.4767 43.7802C59.1328 44.6755 59.1328 46.1272 57.4767 47.0225L34.9864 59.1814C33.3302 60.0767 30.6451 60.0767 28.989 59.1814L6.4987 47.0225Z" fill="url(#paint6_linear_940_555)"/>
<path d="M6.4987 48.0225C4.84257 47.1272 4.84257 45.6755 6.4987 44.7802L28.989 32.6214C30.6451 31.726 33.3302 31.726 34.9864 32.6214L57.4767 44.7802C59.1328 45.6755 59.1328 47.1272 57.4767 48.0225L34.9864 60.1814C33.3302 61.0767 30.6451 61.0767 28.989 60.1814L6.4987 48.0225Z" fill="url(#paint7_linear_940_555)"/>
<path d="M6.4987 49.0225C4.84257 48.1272 4.84257 46.6755 6.4987 45.7802L28.989 33.6214C30.6451 32.726 33.3302 32.726 34.9864 33.6214L57.4767 45.7802C59.1328 46.6755 59.1328 48.1272 57.4767 49.0225L34.9864 61.1814C33.3302 62.0767 30.6451 62.0767 28.989 61.1814L6.4987 49.0225Z" fill="url(#paint8_linear_940_555)"/>
<path d="M6.4987 50.0225C4.84257 49.1272 4.84257 47.6755 6.4987 46.7802L28.989 34.6214C30.6451 33.726 33.3302 33.726 34.9864 34.6214L57.4767 46.7802C59.1328 47.6755 59.1328 49.1272 57.4767 50.0225L34.9864 62.1814C33.3302 63.0767 30.6451 63.0767 28.989 62.1814L6.4987 50.0225Z" fill="url(#paint9_linear_940_555)"/>
<path d="M6.4987 51.0225C4.84257 50.1272 4.84257 48.6755 6.4987 47.7802L28.989 35.6214C30.6451 34.726 33.3302 34.726 34.9864 35.6214L57.4767 47.7802C59.1328 48.6755 59.1328 50.1272 57.4767 51.0225L34.9864 63.1814C33.3302 64.0767 30.6451 64.0767 28.989 63.1814L6.4987 51.0225Z" fill="url(#paint10_linear_940_555)"/>
<g style="mix-blend-mode:multiply">
<path d="M6.63542 31.8253C4.97928 30.9299 4.97928 29.4783 6.63542 28.5829L29.1257 16.4241C30.7818 15.5287 33.467 15.5287 35.1231 16.4241L57.6134 28.5829C59.2695 29.4783 59.2695 30.9299 57.6134 31.8253L35.1231 43.9841C33.467 44.8795 30.7818 44.8795 29.1257 43.9841L6.63542 31.8253Z" fill="url(#paint11_linear_940_555)"/>
</g>
</g>
</g>
<defs>
<linearGradient id="paint0_linear_940_555" x1="9.47984" y1="41.872" x2="55.8964" y2="27.087" gradientUnits="userSpaceOnUse">
<stop stop-color="#F213A4"/>
<stop offset="0.1517" stop-color="#E011A7"/>
<stop offset="0.4554" stop-color="#B20DAF"/>
<stop offset="0.8789" stop-color="#6806BB"/>
<stop offset="1" stop-color="#5204BF"/>
</linearGradient>
<linearGradient id="paint1_linear_940_555" x1="9.47984" y1="42.4706" x2="55.8964" y2="27.6856" gradientUnits="userSpaceOnUse">
<stop stop-color="#F213A4"/>
<stop offset="0.1517" stop-color="#E011A7"/>
<stop offset="0.4554" stop-color="#B20DAF"/>
<stop offset="0.8789" stop-color="#6806BB"/>
<stop offset="1" stop-color="#5204BF"/>
</linearGradient>
<linearGradient id="paint2_linear_940_555" x1="9.47984" y1="43.4706" x2="55.8964" y2="28.6856" gradientUnits="userSpaceOnUse">
<stop stop-color="#F213A4"/>
<stop offset="0.1517" stop-color="#E011A7"/>
<stop offset="0.4554" stop-color="#B20DAF"/>
<stop offset="0.8789" stop-color="#6806BB"/>
<stop offset="1" stop-color="#5204BF"/>
</linearGradient>
<linearGradient id="paint3_linear_940_555" x1="9.47984" y1="44.4706" x2="55.8964" y2="29.6856" gradientUnits="userSpaceOnUse">
<stop stop-color="#F213A4"/>
<stop offset="0.1517" stop-color="#E011A7"/>
<stop offset="0.4554" stop-color="#B20DAF"/>
<stop offset="0.8789" stop-color="#6806BB"/>
<stop offset="1" stop-color="#5204BF"/>
</linearGradient>
<linearGradient id="paint4_linear_940_555" x1="9.47984" y1="45.4706" x2="55.8964" y2="30.6856" gradientUnits="userSpaceOnUse">
<stop stop-color="#F213A4"/>
<stop offset="0.1517" stop-color="#E011A7"/>
<stop offset="0.4554" stop-color="#B20DAF"/>
<stop offset="0.8789" stop-color="#6806BB"/>
<stop offset="1" stop-color="#5204BF"/>
</linearGradient>
<linearGradient id="paint5_linear_940_555" x1="9.47984" y1="46.4706" x2="55.8964" y2="31.6856" gradientUnits="userSpaceOnUse">
<stop stop-color="#F213A4"/>
<stop offset="0.1517" stop-color="#E011A7"/>
<stop offset="0.4554" stop-color="#B20DAF"/>
<stop offset="0.8789" stop-color="#6806BB"/>
<stop offset="1" stop-color="#5204BF"/>
</linearGradient>
<linearGradient id="paint6_linear_940_555" x1="9.47984" y1="47.4706" x2="55.8964" y2="32.6856" gradientUnits="userSpaceOnUse">
<stop stop-color="#F213A4"/>
<stop offset="0.1517" stop-color="#E011A7"/>
<stop offset="0.4554" stop-color="#B20DAF"/>
<stop offset="0.8789" stop-color="#6806BB"/>
<stop offset="1" stop-color="#5204BF"/>
</linearGradient>
<linearGradient id="paint7_linear_940_555" x1="9.47984" y1="48.4706" x2="55.8964" y2="33.6856" gradientUnits="userSpaceOnUse">
<stop stop-color="#F213A4"/>
<stop offset="0.1517" stop-color="#E011A7"/>
<stop offset="0.4554" stop-color="#B20DAF"/>
<stop offset="0.8789" stop-color="#6806BB"/>
<stop offset="1" stop-color="#5204BF"/>
</linearGradient>
<linearGradient id="paint8_linear_940_555" x1="9.47984" y1="49.4706" x2="55.8964" y2="34.6856" gradientUnits="userSpaceOnUse">
<stop stop-color="#F213A4"/>
<stop offset="0.1517" stop-color="#E011A7"/>
<stop offset="0.4554" stop-color="#B20DAF"/>
<stop offset="0.8789" stop-color="#6806BB"/>
<stop offset="1" stop-color="#5204BF"/>
</linearGradient>
<linearGradient id="paint9_linear_940_555" x1="9.47984" y1="50.4706" x2="55.8964" y2="35.6856" gradientUnits="userSpaceOnUse">
<stop stop-color="#F213A4"/>
<stop offset="0.1517" stop-color="#E011A7"/>
<stop offset="0.4554" stop-color="#B20DAF"/>
<stop offset="0.8789" stop-color="#6806BB"/>
<stop offset="1" stop-color="#5204BF"/>
</linearGradient>
<linearGradient id="paint10_linear_940_555" x1="9.47984" y1="51.4706" x2="55.8964" y2="36.6856" gradientUnits="userSpaceOnUse">
<stop stop-color="#F213A4"/>
<stop offset="0.1517" stop-color="#E011A7"/>
<stop offset="0.4554" stop-color="#B20DAF"/>
<stop offset="0.8789" stop-color="#6806BB"/>
<stop offset="1" stop-color="#5204BF"/>
</linearGradient>
<linearGradient id="paint11_linear_940_555" x1="17.9469" y1="22.4677" x2="36.0521" y2="55.9571" gradientUnits="userSpaceOnUse">
<stop stop-color="#0098EE"/>
<stop offset="1" stop-color="#FF1CCD"/>
</linearGradient>
<clipPath id="clip0_940_555">
<rect width="64" height="64" fill="white" transform="matrix(1 0 0 -1 0 64)"/>
</clipPath>
<clipPath id="clip1_940_555">
<rect width="64" height="64" fill="white" transform="translate(0 7.80273)"/>
</clipPath>
</defs>
</svg>
