<svg width="64" height="64" viewBox="0 0 64 64" fill="none" xmlns="http://www.w3.org/2000/svg">
<g style="mix-blend-mode:multiply">
<path d="M11 29C11 24.5817 14.5817 21 19 21H45C49.4183 21 53 24.5817 53 29V46C53 50.4183 49.4183 54 45 54H19C14.5817 54 11 50.4183 11 46V29Z" fill="url(#paint0_linear_940_368)"/>
</g>
<g style="mix-blend-mode:multiply">
<path fill-rule="evenodd" clip-rule="evenodd" d="M8.31818 15.4646C9.01482 12.8329 11.396 11 14.1184 11H49.8816C52.604 11 54.9852 12.8329 55.6818 15.4646L58.2934 25.3307C58.3791 25.6542 58.4977 25.9678 58.6119 26.2824C58.7965 26.7912 58.9195 27.3296 58.9716 27.8885C58.972 27.8929 58.9728 27.8972 58.9739 27.9014L58.9974 27.99C58.9987 27.995 58.9949 28 58.9897 28C58.985 28 58.9814 28.0039 58.9817 28.0086C58.9938 28.1708 59 28.3347 59 28.5C59 32.0899 56.0899 35 52.5 35C48.9101 35 46 32.0899 46 28.5C46 28.3384 46.0059 28.1782 46.0175 28.0196C46.0183 28.009 46.0099 28 45.9993 28C45.9887 28 45.9803 28.0091 45.9812 28.0197C45.9937 28.1783 46 28.3384 46 28.5C46 32.0899 42.866 35 39 35C35.134 35 32 32.0899 32 28.5C32 28.3387 32.0063 28.1787 32.0188 28.0203C32.0196 28.0094 32.011 28 32 28C31.989 28 31.9804 28.0094 31.9812 28.0203C31.9937 28.1787 32 28.3387 32 28.5C32 32.0899 28.866 35 25 35C21.134 35 18 32.0899 18 28.5C18 28.3384 18.0063 28.1783 18.0188 28.0197C18.0197 28.0091 18.0113 28 18.0007 28C17.9901 28 17.9817 28.009 17.9825 28.0196C17.9941 28.1782 18 28.3384 18 28.5C18 32.0899 15.0899 35 11.5 35C7.91015 35 5 32.0899 5 28.5C5 28.3347 5.00617 28.1708 5.0183 28.0086C5.01864 28.0039 5.01499 28 5.01035 28C5.00512 28 5.00131 27.995 5.00265 27.99L5.0261 27.9014C5.02722 27.8972 5.02798 27.8929 5.02838 27.8885C5.08054 27.3296 5.20346 26.7912 5.38811 26.2824C5.50229 25.9678 5.62095 25.6542 5.70659 25.3307L8.31818 15.4646Z" fill="url(#paint1_linear_940_368)"/>
</g>
<defs>
<linearGradient id="paint0_linear_940_368" x1="41.5" y1="54" x2="29.6338" y2="-31.0793" gradientUnits="userSpaceOnUse">
<stop stop-color="#00C3EE"/>
<stop offset="0.532466" stop-color="#CD00EE"/>
<stop offset="1" stop-color="#FF8D5C"/>
</linearGradient>
<linearGradient id="paint1_linear_940_368" x1="7.0399" y1="15.1312" x2="30.4961" y2="52.4012" gradientUnits="userSpaceOnUse">
<stop stop-color="#F213A4"/>
<stop offset="0.1517" stop-color="#E011A7"/>
<stop offset="0.4554" stop-color="#B20DAF"/>
<stop offset="0.8789" stop-color="#6806BB"/>
<stop offset="1" stop-color="#5204BF"/>
</linearGradient>
</defs>
</svg>
