<svg width="64" height="64" viewBox="0 0 64 64" fill="none" xmlns="http://www.w3.org/2000/svg">
<g style="mix-blend-mode:multiply">
<path d="M40 42.1821C40 43.235 38.7109 44.0987 37.1332 43.9909C34.4398 43.8068 31.7957 43.3641 29.2849 42.6736C25.8877 41.7394 22.801 40.3702 20.201 38.6441C17.601 36.918 15.5385 34.8688 14.1314 32.6135C12.7242 30.3583 12 27.9411 12 25.5C12 23.0589 12.7242 20.6417 14.1314 18.3865C15.5385 16.1312 17.601 14.082 20.201 12.3559C22.8011 10.6298 25.8877 9.26056 29.2849 8.32639C31.7957 7.63594 34.4398 7.19315 37.1332 7.00911C38.7109 6.9013 40 7.765 40 8.81794L40 42.1821Z" fill="url(#paint0_linear_940_363)"/>
</g>
<g style="mix-blend-mode:multiply">
<path d="M23 55.1821C23 56.235 24.3351 57.0987 25.9692 56.9909C28.7588 56.8068 31.4973 56.3641 34.0978 55.6736C37.6163 54.7394 40.8132 53.3702 43.5061 51.6441C46.199 49.918 48.3351 47.8688 49.7925 45.6135C51.2499 43.3583 52 40.9411 52 38.5C52 36.0589 51.2499 33.6417 49.7925 31.3865C48.3351 29.1312 46.199 27.082 43.5061 25.3559C40.8132 23.6298 37.6163 22.2606 34.0978 21.3264C31.4973 20.6359 28.7588 20.1931 25.9692 20.0091C24.3351 19.9013 23 20.765 23 21.8179L23 55.1821Z" fill="url(#paint1_linear_940_363)"/>
</g>
<defs>
<linearGradient id="paint0_linear_940_363" x1="-23.0186" y1="49.9213" x2="50.6457" y2="-6.80601" gradientUnits="userSpaceOnUse">
<stop stop-color="#00C3EE"/>
<stop offset="0.532466" stop-color="#CD00EE"/>
<stop offset="1" stop-color="#FF8D5C"/>
</linearGradient>
<linearGradient id="paint1_linear_940_363" x1="18.0286" y1="57" x2="104.426" y2="-42.1155" gradientUnits="userSpaceOnUse">
<stop stop-color="#00C3EE"/>
<stop offset="0.532466" stop-color="#CD00EE"/>
<stop offset="1" stop-color="#FF8D5C"/>
</linearGradient>
</defs>
</svg>
