<svg width="16" height="14" viewBox="0 0 16 14" fill="none" xmlns="http://www.w3.org/2000/svg">
<path d="M13.545 1.90702C12.5076 1.43089 11.4128 1.09106 10.288 0.896019C10.2779 0.894303 10.2674 0.895785 10.2581 0.900262C10.2488 0.904739 10.2411 0.91199 10.236 0.921019C10.095 1.17102 9.93905 1.49802 9.83005 1.75402C8.61765 1.57003 7.38444 1.57003 6.17205 1.75402C6.05046 1.46884 5.91291 1.19073 5.76005 0.921019C5.75492 0.912089 5.7472 0.904921 5.73792 0.900459C5.72864 0.895997 5.71823 0.894449 5.70805 0.896019C4.58305 1.09002 3.48805 1.43002 2.45105 1.90702C2.44217 1.91041 2.43475 1.91677 2.43005 1.92502C0.356047 5.02402 -0.212953 8.04702 0.0660468 11.032C0.0670468 11.046 0.0760468 11.06 0.0870468 11.069C1.29477 11.9636 2.64564 12.6467 4.08205 13.089C4.09219 13.0922 4.10309 13.0921 4.11316 13.0887C4.12323 13.0853 4.13195 13.0787 4.13805 13.07C4.44605 12.65 4.72005 12.207 4.95605 11.741C4.96097 11.7314 4.96265 11.7205 4.96085 11.7099C4.95905 11.6992 4.95385 11.6895 4.94605 11.682C4.94088 11.6771 4.93475 11.6734 4.92805 11.671C4.49721 11.5054 4.07994 11.3065 3.68005 11.076C3.66888 11.0697 3.66057 11.0593 3.65685 11.047C3.65312 11.0347 3.65427 11.0215 3.66005 11.01C3.66345 11.0026 3.66859 10.9961 3.67505 10.991C3.75905 10.928 3.84305 10.862 3.92305 10.796C3.93011 10.7903 3.93859 10.7867 3.94758 10.7855C3.95656 10.7842 3.96571 10.7855 3.97405 10.789C6.59305 11.985 9.42805 11.985 12.015 10.789C12.0237 10.7853 12.0332 10.784 12.0425 10.7852C12.0518 10.7864 12.0607 10.7902 12.068 10.796C12.148 10.862 12.232 10.928 12.316 10.991C12.3229 10.996 12.3283 11.0026 12.332 11.0102C12.3356 11.0178 12.3373 11.0262 12.3369 11.0346C12.3365 11.043 12.334 11.0512 12.3297 11.0584C12.3254 11.0657 12.3193 11.0717 12.312 11.076C11.9131 11.3086 11.4953 11.5073 11.063 11.67C11.0562 11.6725 11.0499 11.6765 11.0447 11.6817C11.0395 11.6869 11.0355 11.6931 11.033 11.7C11.0307 11.7067 11.0298 11.7138 11.0303 11.7208C11.0308 11.7279 11.0328 11.7347 11.036 11.741C11.276 12.206 11.551 12.65 11.853 13.07C11.8591 13.0787 11.8679 13.0853 11.8779 13.0887C11.888 13.0921 11.8989 13.0922 11.909 13.089C13.3479 12.648 14.7009 11.9649 15.91 11.069C15.9161 11.0648 15.9211 11.0593 15.9248 11.0529C15.9284 11.0465 15.9306 11.0394 15.931 11.032C16.265 7.58102 15.372 4.58302 13.565 1.92602C13.5632 1.92163 13.5605 1.91767 13.5571 1.9144C13.5536 1.91113 13.5495 1.90861 13.545 1.90702ZM5.34705 9.21402C4.55805 9.21402 3.90905 8.49002 3.90905 7.60202C3.90905 6.71302 4.54605 5.98902 5.34705 5.98902C6.15405 5.98902 6.79705 6.71902 6.78505 7.60202C6.78505 8.49002 6.14805 9.21402 5.34705 9.21402ZM10.663 9.21402C9.87505 9.21402 9.22505 8.49002 9.22505 7.60202C9.22505 6.71302 9.86205 5.98902 10.663 5.98902C11.47 5.98902 12.114 6.71902 12.101 7.60202C12.101 8.49002 11.47 9.21402 10.663 9.21402Z" fill="#C29AFE"/>
</svg>
