<svg xmlns="http://www.w3.org/2000/svg" width="16" height="16" fill="none" viewBox="0 0 16 16"><g clip-path="url(#clip0_120_6)"><path fill="#C29AFE" d="M16 8C16 10.1217 15.1571 12.1566 13.6569 13.6569C12.1566 15.1571 10.1217 16 8 16C5.87827 16 3.84344 15.1571 2.34315 13.6569C0.842855 12.1566 0 10.1217 0 8C0 5.87827 0.842855 3.84344 2.34315 2.34315C3.84344 0.842855 5.87827 0 8 0C10.1217 0 12.1566 0.842855 13.6569 2.34315C15.1571 3.84344 16 5.87827 16 8ZM5.496 6.033H6.321C6.459 6.033 6.569 5.92 6.587 5.783C6.677 5.127 7.127 4.649 7.929 4.649C8.615 4.649 9.243 4.992 9.243 5.817C9.243 6.452 8.869 6.744 8.278 7.188C7.605 7.677 7.072 8.248 7.11 9.175L7.113 9.392C7.11405 9.45761 7.14085 9.52017 7.18762 9.5662C7.23439 9.61222 7.29738 9.63801 7.363 9.638H8.174C8.2403 9.638 8.30389 9.61166 8.35078 9.56478C8.39766 9.51789 8.424 9.4543 8.424 9.388V9.283C8.424 8.565 8.697 8.356 9.434 7.797C10.043 7.334 10.678 6.82 10.678 5.741C10.678 4.23 9.402 3.5 8.005 3.5C6.738 3.5 5.35 4.09 5.255 5.786C5.25363 5.81829 5.25888 5.85053 5.27043 5.88072C5.28198 5.91091 5.29958 5.93841 5.32216 5.96155C5.34473 5.98468 5.3718 6.00296 5.40169 6.01524C5.43159 6.02753 5.46368 6.03357 5.496 6.033ZM7.821 12.476C8.431 12.476 8.85 12.082 8.85 11.549C8.85 10.997 8.43 10.609 7.821 10.609C7.237 10.609 6.812 10.997 6.812 11.549C6.812 12.082 7.236 12.476 7.821 12.476Z"/></g><defs><clipPath id="clip0_120_6"><rect width="16" height="16" fill="#fff"/></clipPath></defs></svg>