<svg xmlns="http://www.w3.org/2000/svg" width="23" height="15" fill="none" viewBox="0 0 23 15"><path fill="#C29AFE" d="M22.0182 2.3535C21.8908 1.89931 21.6428 1.48811 21.3005 1.16361C20.9485 0.829138 20.517 0.589879 20.0469 0.468421C18.2874 0.00464597 11.238 0.00464608 11.238 0.00464608C8.29918 -0.0287901 5.36109 0.11827 2.44031 0.444998C1.97016 0.575429 1.53953 0.820034 1.18672 1.15706C0.840057 1.4906 0.588963 1.90191 0.457795 2.35256C0.142702 4.05002 -0.0103912 5.77358 0.00057825 7.49999C-0.0106648 9.22486 0.142053 10.9479 0.457795 12.6474C0.586152 13.0962 0.83631 13.5056 1.18391 13.8364C1.5315 14.1671 1.96436 14.406 2.44031 14.5325C4.22327 14.9953 11.238 14.9953 11.238 14.9953C14.1805 15.0288 17.1224 14.8818 20.0469 14.555C20.517 14.4335 20.9485 14.1943 21.3005 13.8598C21.6427 13.5354 21.8904 13.1241 22.0172 12.6699C22.3405 10.9731 22.4978 9.24884 22.4866 7.52154C22.5109 5.78694 22.3539 4.05454 22.0182 2.35256V2.3535ZM8.99687 10.708V4.29292L14.862 7.50093L8.99687 10.708Z"/></svg>