<svg width="19" height="15" viewBox="0 0 19 15" fill="none" xmlns="http://www.w3.org/2000/svg">
<path d="M1.45 15C1.05 15 0.708333 14.8583 0.425 14.575C0.141667 14.2917 0 13.95 0 13.55V1.45C0 1.05 0.141667 0.708333 0.425 0.425C0.708333 0.141667 1.05 0 1.45 0H17.55C17.95 0 18.2917 0.141667 18.575 0.425C18.8583 0.708333 19 1.05 19 1.45V13.55C19 13.95 18.8583 14.2917 18.575 14.575C18.2917 14.8583 17.95 15 17.55 15H1.45ZM10.075 13.875H17.55C17.6333 13.875 17.7083 13.8417 17.775 13.775C17.8417 13.7083 17.875 13.6333 17.875 13.55V1.45C17.875 1.36667 17.8417 1.29167 17.775 1.225C17.7083 1.15833 17.6333 1.125 17.55 1.125H10.075V13.875ZM11.175 10.375H16.775V9.375H11.175V10.375ZM11.175 7.725H16.775V6.7H11.175V7.725ZM11.175 5.05H16.775V4.05H11.175V5.05Z" fill="#C29AFE"/>
</svg>
