<svg width="19" height="20" viewBox="0 0 19 20" fill="none" xmlns="http://www.w3.org/2000/svg">
<path d="M3.60202 1.1335V7.75819L5.79345 6.42317L7.98489 7.75819V1.1335H3.60202ZM14.4836 20C13.2746 20 12.246 19.5718 11.398 18.7154C10.55 17.8589 10.1259 16.8178 10.1259 15.5919C10.1259 14.3829 10.5542 13.3543 11.4106 12.5063C12.267 11.6583 13.3249 11.2343 14.5844 11.2343C15.7599 11.2343 16.7716 11.6583 17.6196 12.5063C18.4677 13.3543 18.8917 14.3913 18.8917 15.6171C18.8917 16.8262 18.4635 17.8589 17.6071 18.7154C16.7506 19.5718 15.7095 20 14.4836 20ZM13.4509 17.6826L16.5491 15.5919L13.4509 13.5013V17.6826ZM8.46348 15.5919C8.46348 16.2469 8.54324 16.8808 8.70277 17.4937C8.8623 18.1066 9.13518 18.665 9.52141 19.1688H1.46096C1.05793 19.1688 0.713686 19.026 0.428212 18.7406C0.142737 18.4551 0 18.1108 0 17.7078V1.46096C0 1.05793 0.142737 0.713686 0.428212 0.428212C0.713686 0.142737 1.05793 0 1.46096 0H13.6524C14.0554 0 14.3997 0.142737 14.6851 0.428212C14.9706 0.713686 15.1133 1.05793 15.1133 1.46096V9.62217C15.0126 9.60537 14.9202 9.59698 14.8363 9.59698H14.5844C12.8883 9.59698 11.4442 10.1805 10.2519 11.3476C9.05961 12.5147 8.46348 13.9295 8.46348 15.5919Z" fill="#C29AFE"/>
</svg>
