<svg xmlns="http://www.w3.org/2000/svg" width="396" height="214" fill="none" viewBox="0 0 396 214"><rect width="395" height="213" x=".5" y=".5" fill="#141414" rx="11.5"/><circle cx="20.5" cy="20.5" r="4.5" fill="#F45751"/><circle cx="35.5" cy="20.5" r="4.5" fill="#FCBC2E"/><circle cx="50.5" cy="20.5" r="4.5" fill="#44D759"/><path fill="#0B0B0B" d="M16 49C16 44.5817 19.5817 41 24 41H372C376.418 41 380 44.5817 380 49V190H16V49Z"/><path fill="#fff" d="M33.148 130V123.126H34.478L34.604 124.162H34.66C34.9867 123.826 35.346 123.541 35.738 123.308C36.1393 123.075 36.606 122.958 37.138 122.958C37.9313 122.958 38.5147 123.201 38.888 123.686C39.2613 124.171 39.448 124.857 39.448 125.744V130H37.824V125.954C37.824 125.403 37.726 124.997 37.53 124.736C37.334 124.475 37.0027 124.344 36.536 124.344C36.2 124.344 35.9013 124.423 35.64 124.582C35.3787 124.741 35.0893 124.983 34.772 125.31V130H33.148ZM41.5425 132.716V123.126H42.8725L42.9985 123.91H43.0405C43.3392 123.63 43.6799 123.401 44.0625 123.224C44.4545 123.047 44.8465 122.958 45.2385 122.958C45.8452 122.958 46.3539 123.103 46.7645 123.392C47.1752 123.681 47.4925 124.087 47.7165 124.61C47.9405 125.133 48.0525 125.749 48.0525 126.458C48.0525 127.242 47.9079 127.909 47.6185 128.46C47.3292 129.011 46.9512 129.435 46.4845 129.734C46.0272 130.023 45.5325 130.168 45.0005 130.168C44.6925 130.168 44.3705 130.098 44.0345 129.958C43.7079 129.818 43.4045 129.617 43.1245 129.356H43.0825L43.1665 130.56V132.716H41.5425ZM44.6645 128.838C44.9912 128.838 45.2852 128.749 45.5465 128.572C45.8079 128.395 46.0132 128.133 46.1625 127.788C46.3119 127.433 46.3865 126.995 46.3865 126.472C46.3865 126.015 46.3305 125.623 46.2185 125.296C46.1065 124.969 45.9339 124.722 45.7005 124.554C45.4765 124.377 45.1732 124.288 44.7905 124.288C44.5292 124.288 44.2632 124.353 43.9925 124.484C43.7219 124.615 43.4465 124.825 43.1665 125.114V128.208C43.4185 128.432 43.6799 128.595 43.9505 128.698C44.2212 128.791 44.4592 128.838 44.6645 128.838ZM49.5031 130L51.9951 126.43L49.6711 123.126H51.4211L52.3171 124.428C52.4291 124.615 52.5504 124.811 52.6811 125.016C52.8211 125.212 52.9517 125.408 53.0731 125.604H53.1291C53.2317 125.408 53.3437 125.207 53.4651 125.002C53.5864 124.797 53.6984 124.601 53.8011 124.414L54.6131 123.126H56.3071L53.9691 126.598L56.4751 130H54.7251L53.7311 128.642C53.6004 128.455 53.4604 128.255 53.3111 128.04C53.1711 127.825 53.0311 127.62 52.8911 127.424H52.8351C52.7137 127.62 52.5877 127.821 52.4571 128.026C52.3357 128.231 52.2144 128.441 52.0931 128.656L51.1971 130H49.5031ZM71.0521 130.168C70.3521 130.168 69.7968 130.047 69.3861 129.804C68.9755 129.552 68.6815 129.207 68.5041 128.768C68.3268 128.329 68.2381 127.821 68.2381 127.242V124.4H66.4041V123.196L68.3081 123.126L68.5181 120.97H69.8481V123.126H72.9841V124.4H69.8481V127.228C69.8481 127.601 69.8995 127.914 70.0021 128.166C70.1048 128.409 70.2728 128.591 70.5061 128.712C70.7395 128.824 71.0475 128.88 71.4301 128.88C71.7288 128.88 71.9995 128.857 72.2421 128.81C72.4848 128.763 72.7181 128.698 72.9421 128.614L73.2501 129.776C72.9421 129.879 72.6108 129.967 72.2561 130.042C71.9015 130.126 71.5001 130.168 71.0521 130.168ZM75.1207 130V120.116H76.7447V122.664L76.6467 124.134H76.6887C76.9873 123.817 77.3327 123.541 77.7247 123.308C78.126 123.075 78.588 122.958 79.1107 122.958C79.904 122.958 80.4873 123.201 80.8607 123.686C81.234 124.171 81.4207 124.857 81.4207 125.744V130H79.7967V125.954C79.7967 125.403 79.6987 124.997 79.5027 124.736C79.3067 124.475 78.9753 124.344 78.5087 124.344C78.1727 124.344 77.874 124.423 77.6127 124.582C77.3513 124.741 77.062 124.983 76.7447 125.31V130H75.1207ZM86.5252 130V124.4H83.5432V123.126H88.1352V130H86.5252ZM87.2112 121.866C86.8845 121.866 86.6092 121.768 86.3852 121.572C86.1705 121.376 86.0632 121.115 86.0632 120.788C86.0632 120.461 86.1705 120.2 86.3852 120.004C86.6092 119.799 86.8845 119.696 87.2112 119.696C87.5472 119.696 87.8225 119.799 88.0372 120.004C88.2519 120.2 88.3592 120.461 88.3592 120.788C88.3592 121.115 88.2519 121.376 88.0372 121.572C87.8225 121.768 87.5472 121.866 87.2112 121.866ZM92.5817 130V123.126H93.9117L94.0517 124.68H94.0937C94.4391 124.12 94.8637 123.695 95.3677 123.406C95.8811 123.107 96.4317 122.958 97.0197 122.958C97.2997 122.958 97.5424 122.981 97.7477 123.028C97.9531 123.075 98.1537 123.145 98.3497 123.238L98.0137 124.596C97.7897 124.521 97.5891 124.47 97.4117 124.442C97.2437 124.405 97.0291 124.386 96.7677 124.386C96.3011 124.386 95.8437 124.521 95.3957 124.792C94.9571 125.063 94.5604 125.534 94.2057 126.206V130H92.5817ZM102.838 130.168C101.961 130.168 101.252 129.851 100.71 129.216C100.169 128.581 99.8983 127.699 99.8983 126.57C99.8983 125.823 100.043 125.179 100.332 124.638C100.622 124.097 101 123.681 101.466 123.392C101.933 123.103 102.423 122.958 102.936 122.958C103.328 122.958 103.674 123.028 103.972 123.168C104.28 123.308 104.565 123.509 104.826 123.77H104.868L104.784 122.608V120.116H106.408V130H105.078L104.952 129.202H104.91C104.649 129.463 104.336 129.692 103.972 129.888C103.608 130.075 103.23 130.168 102.838 130.168ZM103.23 128.838C103.51 128.838 103.781 128.773 104.042 128.642C104.304 128.502 104.551 128.292 104.784 128.012V124.918C104.542 124.685 104.299 124.521 104.056 124.428C103.814 124.335 103.566 124.288 103.314 124.288C102.997 124.288 102.703 124.377 102.432 124.554C102.171 124.731 101.961 124.988 101.802 125.324C101.644 125.66 101.564 126.071 101.564 126.556C101.564 127.293 101.709 127.858 101.998 128.25C102.297 128.642 102.708 128.838 103.23 128.838ZM108.937 130L107.635 123.126H109.217L109.833 126.696C109.889 127.032 109.935 127.363 109.973 127.69C110.019 128.007 110.061 128.334 110.099 128.67H110.141C110.187 128.334 110.239 128.003 110.295 127.676C110.36 127.349 110.43 127.023 110.505 126.696L111.135 123.798H112.465L113.081 126.696C113.155 127.032 113.225 127.363 113.291 127.69C113.365 128.007 113.426 128.334 113.473 128.67H113.529C113.575 128.334 113.613 128.007 113.641 127.69C113.678 127.363 113.725 127.032 113.781 126.696L114.369 123.126H115.867L114.607 130H112.647L112.073 127.256C112.026 126.985 111.975 126.682 111.919 126.346C111.872 126.01 111.825 125.637 111.779 125.226H111.723C111.676 125.581 111.629 125.921 111.583 126.248C111.545 126.575 111.499 126.911 111.443 127.256L110.883 130H108.937ZM120.565 130.168C119.865 130.168 119.231 130.028 118.661 129.748C118.092 129.459 117.639 129.048 117.303 128.516C116.967 127.975 116.799 127.321 116.799 126.556C116.799 125.809 116.967 125.17 117.303 124.638C117.639 124.097 118.078 123.681 118.619 123.392C119.161 123.103 119.739 122.958 120.355 122.958C121.037 122.958 121.611 123.098 122.077 123.378C122.553 123.658 122.913 124.045 123.155 124.54C123.407 125.025 123.533 125.585 123.533 126.22C123.533 126.379 123.524 126.533 123.505 126.682C123.496 126.822 123.482 126.939 123.463 127.032H117.961V125.884H122.427L122.119 126.248C122.119 125.567 121.965 125.058 121.657 124.722C121.359 124.377 120.939 124.204 120.397 124.204C120.015 124.204 119.669 124.293 119.361 124.47C119.063 124.647 118.825 124.913 118.647 125.268C118.47 125.613 118.381 126.043 118.381 126.556C118.381 127.088 118.479 127.527 118.675 127.872C118.881 128.217 119.161 128.479 119.515 128.656C119.879 128.833 120.299 128.922 120.775 128.922C121.139 128.922 121.475 128.871 121.783 128.768C122.091 128.665 122.399 128.525 122.707 128.348L123.253 129.356C122.889 129.589 122.479 129.785 122.021 129.944C121.564 130.093 121.079 130.168 120.565 130.168ZM128.946 130.168C128.619 130.168 128.279 130.089 127.924 129.93C127.579 129.771 127.252 129.543 126.944 129.244H126.902L126.762 130H125.488V120.116H127.112V122.664L127.042 123.868H127.084C127.373 123.588 127.7 123.369 128.064 123.21C128.437 123.042 128.811 122.958 129.184 122.958C129.781 122.958 130.285 123.103 130.696 123.392C131.116 123.681 131.438 124.087 131.662 124.61C131.886 125.123 131.998 125.735 131.998 126.444C131.998 127.228 131.853 127.9 131.564 128.46C131.275 129.011 130.897 129.435 130.43 129.734C129.973 130.023 129.478 130.168 128.946 130.168ZM128.624 128.838C128.941 128.838 129.231 128.749 129.492 128.572C129.753 128.395 129.959 128.133 130.108 127.788C130.257 127.433 130.332 126.995 130.332 126.472C130.332 126.015 130.276 125.623 130.164 125.296C130.052 124.969 129.879 124.722 129.646 124.554C129.422 124.377 129.119 124.288 128.736 124.288C128.475 124.288 128.209 124.353 127.938 124.484C127.667 124.615 127.392 124.825 127.112 125.114V128.208C127.364 128.432 127.625 128.595 127.896 128.698C128.167 128.791 128.409 128.838 128.624 128.838ZM142.277 132.716V123.126H143.607L143.733 123.91H143.775C144.074 123.63 144.414 123.401 144.797 123.224C145.189 123.047 145.581 122.958 145.973 122.958C146.58 122.958 147.088 123.103 147.499 123.392C147.91 123.681 148.227 124.087 148.451 124.61C148.675 125.133 148.787 125.749 148.787 126.458C148.787 127.242 148.642 127.909 148.353 128.46C148.064 129.011 147.686 129.435 147.219 129.734C146.762 130.023 146.267 130.168 145.735 130.168C145.427 130.168 145.105 130.098 144.769 129.958C144.442 129.818 144.139 129.617 143.859 129.356H143.817L143.901 130.56V132.716H142.277ZM145.399 128.838C145.726 128.838 146.02 128.749 146.281 128.572C146.542 128.395 146.748 128.133 146.897 127.788C147.046 127.433 147.121 126.995 147.121 126.472C147.121 126.015 147.065 125.623 146.953 125.296C146.841 124.969 146.668 124.722 146.435 124.554C146.211 124.377 145.908 124.288 145.525 124.288C145.264 124.288 144.998 124.353 144.727 124.484C144.456 124.615 144.181 124.825 143.901 125.114V128.208C144.153 128.432 144.414 128.595 144.685 128.698C144.956 128.791 145.194 128.838 145.399 128.838ZM152.799 130.168C151.997 130.168 151.413 129.925 151.049 129.44C150.685 128.955 150.503 128.269 150.503 127.382V123.126H152.113V127.172C152.113 127.723 152.207 128.129 152.393 128.39C152.589 128.651 152.925 128.782 153.401 128.782C153.719 128.782 154.008 128.707 154.269 128.558C154.54 128.399 154.825 128.133 155.123 127.76V123.126H156.733V130H155.417L155.291 128.908H155.235C154.909 129.281 154.549 129.585 154.157 129.818C153.765 130.051 153.313 130.168 152.799 130.168ZM162.524 130.168C162.197 130.168 161.857 130.089 161.502 129.93C161.157 129.771 160.83 129.543 160.522 129.244H160.48L160.34 130H159.066V120.116H160.69V122.664L160.62 123.868H160.662C160.951 123.588 161.278 123.369 161.642 123.21C162.015 123.042 162.389 122.958 162.762 122.958C163.359 122.958 163.863 123.103 164.274 123.392C164.694 123.681 165.016 124.087 165.24 124.61C165.464 125.123 165.576 125.735 165.576 126.444C165.576 127.228 165.431 127.9 165.142 128.46C164.853 129.011 164.475 129.435 164.008 129.734C163.551 130.023 163.056 130.168 162.524 130.168ZM162.202 128.838C162.519 128.838 162.809 128.749 163.07 128.572C163.331 128.395 163.537 128.133 163.686 127.788C163.835 127.433 163.91 126.995 163.91 126.472C163.91 126.015 163.854 125.623 163.742 125.296C163.63 124.969 163.457 124.722 163.224 124.554C163 124.377 162.697 124.288 162.314 124.288C162.053 124.288 161.787 124.353 161.516 124.484C161.245 124.615 160.97 124.825 160.69 125.114V128.208C160.942 128.432 161.203 128.595 161.474 128.698C161.745 128.791 161.987 128.838 162.202 128.838ZM171.913 130.168C171.119 130.168 170.513 129.935 170.093 129.468C169.682 128.992 169.477 128.334 169.477 127.494V121.39H167.236V120.116H171.087V127.578C171.087 128.045 171.203 128.376 171.437 128.572C171.679 128.759 171.973 128.852 172.319 128.852C172.496 128.852 172.678 128.833 172.865 128.796C173.051 128.749 173.261 128.679 173.495 128.586L173.873 129.776C173.546 129.888 173.238 129.981 172.949 130.056C172.669 130.131 172.323 130.168 171.913 130.168ZM178.865 130V124.4H175.883V123.126H180.475V130H178.865ZM179.551 121.866C179.224 121.866 178.949 121.768 178.725 121.572C178.51 121.376 178.403 121.115 178.403 120.788C178.403 120.461 178.51 120.2 178.725 120.004C178.949 119.799 179.224 119.696 179.551 119.696C179.887 119.696 180.162 119.799 180.377 120.004C180.592 120.2 180.699 120.461 180.699 120.788C180.699 121.115 180.592 121.376 180.377 121.572C180.162 121.768 179.887 121.866 179.551 121.866ZM187.344 130.168C186.7 130.168 186.084 130.065 185.496 129.86C184.908 129.645 184.399 129.393 183.97 129.104L184.67 128.082C185.08 128.353 185.524 128.567 186 128.726C186.476 128.875 186.994 128.95 187.554 128.95C188.03 128.95 188.38 128.871 188.604 128.712C188.837 128.544 188.954 128.348 188.954 128.124C188.954 128.012 188.926 127.909 188.87 127.816C188.823 127.723 188.734 127.639 188.604 127.564C188.473 127.48 188.282 127.401 188.03 127.326C187.778 127.251 187.451 127.172 187.05 127.088C186.135 126.892 185.463 126.626 185.034 126.29C184.604 125.954 184.39 125.529 184.39 125.016C184.39 124.409 184.651 123.915 185.174 123.532C185.706 123.149 186.452 122.958 187.414 122.958C187.983 122.958 188.515 123.051 189.01 123.238C189.514 123.425 189.938 123.635 190.284 123.868L189.542 124.862C189.215 124.638 188.856 124.47 188.464 124.358C188.072 124.237 187.675 124.176 187.274 124.176C186.966 124.176 186.718 124.209 186.532 124.274C186.354 124.339 186.219 124.433 186.126 124.554C186.042 124.666 186 124.792 186 124.932C186 125.175 186.14 125.357 186.42 125.478C186.7 125.599 187.157 125.73 187.792 125.87C188.529 126.029 189.098 126.211 189.5 126.416C189.901 126.612 190.176 126.841 190.326 127.102C190.484 127.354 190.564 127.667 190.564 128.04C190.564 128.432 190.438 128.791 190.186 129.118C189.943 129.435 189.584 129.692 189.108 129.888C188.632 130.075 188.044 130.168 187.344 130.168ZM192.644 130V120.116H194.268V122.664L194.17 124.134H194.212C194.511 123.817 194.856 123.541 195.248 123.308C195.649 123.075 196.111 122.958 196.634 122.958C197.427 122.958 198.011 123.201 198.384 123.686C198.757 124.171 198.944 124.857 198.944 125.744V130H197.32V125.954C197.32 125.403 197.222 124.997 197.026 124.736C196.83 124.475 196.499 124.344 196.032 124.344C195.696 124.344 195.397 124.423 195.136 124.582C194.875 124.741 194.585 124.983 194.268 125.31V130H192.644Z"/><path fill="#595959" d="M36.536 72L37.656 62.9H38.51L37.404 72H36.536ZM33.918 72L35.038 62.9H35.892L34.786 72H33.918ZM33.442 66.33V65.406H39.322V66.33H33.442ZM33.162 69.2V68.276H39.042V69.2H33.162ZM50.1191 72V62.83H53.0171C53.6891 62.83 54.2817 62.9187 54.7951 63.096C55.3177 63.264 55.7237 63.5533 56.0131 63.964C56.3024 64.3653 56.4471 64.9067 56.4471 65.588C56.4471 66.2507 56.2977 66.7967 55.9991 67.226C55.7097 67.6553 55.3037 67.9773 54.7811 68.192C54.2677 68.3973 53.6797 68.5 53.0171 68.5H51.5191V72H50.1191ZM51.5191 67.366H52.8771C53.6237 67.366 54.1744 67.2213 54.5291 66.932C54.8837 66.6427 55.0611 66.1947 55.0611 65.588C55.0611 64.972 54.8791 64.5473 54.5151 64.314C54.1511 64.0713 53.6051 63.95 52.8771 63.95H51.5191V67.366ZM60.5436 72.168C59.7409 72.168 59.1483 71.93 58.7656 71.454C58.3923 70.978 58.2056 70.292 58.2056 69.396V65.154H59.5916V69.214C59.5916 69.8207 59.6989 70.2687 59.9136 70.558C60.1376 70.838 60.5063 70.978 61.0196 70.978C61.3836 70.978 61.7103 70.8893 61.9996 70.712C62.2889 70.5347 62.6016 70.2453 62.9376 69.844V65.154H64.3236V72H63.1896L63.0776 70.866H63.0216C62.6856 71.2487 62.3169 71.5613 61.9156 71.804C61.5236 72.0467 61.0663 72.168 60.5436 72.168ZM70.1281 72.168C69.7921 72.168 69.4421 72.0887 69.0781 71.93C68.7141 71.762 68.3781 71.5333 68.0701 71.244H68.0281L67.9021 72H66.8101V62.074H68.1961V64.706L68.1401 65.966H68.1821C68.4808 65.6673 68.8215 65.4293 69.2041 65.252C69.5961 65.0747 69.9835 64.986 70.3661 64.986C70.9728 64.986 71.4861 65.1307 71.9061 65.42C72.3261 65.7093 72.6435 66.1153 72.8581 66.638C73.0821 67.1513 73.1941 67.7627 73.1941 68.472C73.1941 69.2467 73.0495 69.914 72.7601 70.474C72.4708 71.0247 72.0928 71.4447 71.6261 71.734C71.1688 72.0233 70.6695 72.168 70.1281 72.168ZM69.8621 71.02C70.2261 71.02 70.5481 70.922 70.8281 70.726C71.1175 70.53 71.3461 70.2453 71.5141 69.872C71.6821 69.4893 71.7661 69.0273 71.7661 68.486C71.7661 68.01 71.7008 67.5993 71.5701 67.254C71.4488 66.8993 71.2621 66.6287 71.0101 66.442C70.7581 66.246 70.4221 66.148 70.0021 66.148C69.7221 66.148 69.4281 66.2227 69.1201 66.372C68.8121 66.512 68.5041 66.7453 68.1961 67.072V70.306C68.4855 70.558 68.7795 70.74 69.0781 70.852C69.3768 70.964 69.6381 71.02 69.8621 71.02ZM79.6147 72.168C78.8587 72.168 78.28 71.9487 77.8787 71.51C77.4773 71.062 77.2767 70.4273 77.2767 69.606V63.194H74.9947V62.074H78.6627V69.69C78.6627 70.166 78.784 70.5113 79.0267 70.726C79.2693 70.9313 79.5727 71.034 79.9367 71.034C80.1233 71.034 80.3147 71.0107 80.5107 70.964C80.716 70.9173 80.94 70.8427 81.1827 70.74L81.5187 71.776C81.192 71.888 80.8887 71.9813 80.6087 72.056C80.338 72.1307 80.0067 72.168 79.6147 72.168ZM86.6512 72V66.274H83.5852V65.154H88.0372V72H86.6512ZM87.2252 63.824C86.9265 63.824 86.6792 63.7353 86.4832 63.558C86.2872 63.3713 86.1892 63.1287 86.1892 62.83C86.1892 62.5313 86.2872 62.2933 86.4832 62.116C86.6792 61.9293 86.9265 61.836 87.2252 61.836C87.5239 61.836 87.7712 61.9293 87.9672 62.116C88.1632 62.2933 88.2612 62.5313 88.2612 62.83C88.2612 63.1287 88.1632 63.3713 87.9672 63.558C87.7712 63.7353 87.5239 63.824 87.2252 63.824ZM95.0457 72.168C94.4017 72.168 93.7857 72.0607 93.1977 71.846C92.6097 71.6313 92.1104 71.384 91.6997 71.104L92.3157 70.208C92.7171 70.488 93.1511 70.7073 93.6177 70.866C94.0937 71.0247 94.6304 71.104 95.2277 71.104C95.7504 71.104 96.1377 71.0107 96.3897 70.824C96.6511 70.6373 96.7817 70.418 96.7817 70.166C96.7817 70.0447 96.7537 69.9327 96.6977 69.83C96.6511 69.7273 96.5577 69.634 96.4177 69.55C96.2871 69.4567 96.0864 69.368 95.8157 69.284C95.5544 69.2 95.2091 69.1113 94.7797 69.018C93.8744 68.8313 93.2024 68.5747 92.7637 68.248C92.3344 67.9213 92.1197 67.5013 92.1197 66.988C92.1197 66.4093 92.3671 65.9333 92.8617 65.56C93.3657 65.1773 94.0937 64.986 95.0457 64.986C95.5871 64.986 96.1004 65.0793 96.5857 65.266C97.0804 65.4433 97.5004 65.6487 97.8457 65.882L97.2017 66.75C96.8751 66.5353 96.5157 66.3673 96.1237 66.246C95.7411 66.1153 95.3397 66.05 94.9197 66.05C94.5744 66.05 94.2991 66.092 94.0937 66.176C93.8884 66.2507 93.7391 66.3533 93.6457 66.484C93.5524 66.6147 93.5057 66.7593 93.5057 66.918C93.5057 67.1793 93.6504 67.3847 93.9397 67.534C94.2384 67.674 94.7191 67.814 95.3817 67.954C96.1284 68.1127 96.7024 68.29 97.1037 68.486C97.5144 68.682 97.7944 68.9107 97.9437 69.172C98.1024 69.424 98.1817 69.7273 98.1817 70.082C98.1817 70.4647 98.0604 70.8147 97.8177 71.132C97.5751 71.4493 97.2204 71.7013 96.7537 71.888C96.2964 72.0747 95.7271 72.168 95.0457 72.168ZM100.388 72V62.074H101.774V64.706L101.69 66.246H101.732C102.059 65.9007 102.423 65.6067 102.824 65.364C103.226 65.112 103.688 64.986 104.21 64.986C105.013 64.986 105.601 65.2287 105.974 65.714C106.348 66.19 106.534 66.8713 106.534 67.758V72H105.148V67.94C105.148 67.3427 105.036 66.904 104.812 66.624C104.598 66.3347 104.234 66.19 103.72 66.19C103.356 66.19 103.03 66.2833 102.74 66.47C102.451 66.6473 102.129 66.918 101.774 67.282V72H100.388ZM117.821 74.87C117.653 74.87 117.485 74.856 117.317 74.828C117.149 74.8 117.005 74.7673 116.883 74.73L117.163 73.652C117.247 73.68 117.341 73.7033 117.443 73.722C117.546 73.7407 117.649 73.75 117.751 73.75C118.209 73.75 118.577 73.624 118.857 73.372C119.137 73.12 119.357 72.8073 119.515 72.434L119.697 71.958L116.575 65.154H117.961L119.501 68.724C119.623 69.032 119.749 69.3587 119.879 69.704C120.019 70.04 120.159 70.3807 120.299 70.726H120.355C120.467 70.3993 120.584 70.0633 120.705 69.718C120.827 69.3633 120.943 69.032 121.055 68.724L122.413 65.154H123.729L120.803 72.434C120.626 72.9193 120.407 73.344 120.145 73.708C119.884 74.072 119.562 74.3567 119.179 74.562C118.806 74.7673 118.353 74.87 117.821 74.87ZM128.54 72.168C127.943 72.168 127.383 72.028 126.86 71.748C126.347 71.468 125.927 71.062 125.6 70.53C125.283 69.9887 125.124 69.34 125.124 68.584C125.124 67.828 125.283 67.184 125.6 66.652C125.927 66.1107 126.347 65.7 126.86 65.42C127.383 65.1307 127.943 64.986 128.54 64.986C129.137 64.986 129.693 65.1307 130.206 65.42C130.729 65.7 131.149 66.1107 131.466 66.652C131.793 67.184 131.956 67.828 131.956 68.584C131.956 69.34 131.793 69.9887 131.466 70.53C131.149 71.062 130.729 71.468 130.206 71.748C129.693 72.028 129.137 72.168 128.54 72.168ZM128.54 71.034C128.941 71.034 129.291 70.9313 129.59 70.726C129.889 70.5207 130.117 70.236 130.276 69.872C130.444 69.508 130.528 69.0787 130.528 68.584C130.528 68.0987 130.444 67.674 130.276 67.31C130.117 66.9367 129.889 66.6473 129.59 66.442C129.291 66.2367 128.941 66.134 128.54 66.134C128.139 66.134 127.789 66.2367 127.49 66.442C127.191 66.6473 126.958 66.9367 126.79 67.31C126.631 67.674 126.552 68.0987 126.552 68.584C126.552 69.0787 126.631 69.508 126.79 69.872C126.958 70.236 127.191 70.5207 127.49 70.726C127.789 70.9313 128.139 71.034 128.54 71.034ZM136.094 72.168C135.292 72.168 134.699 71.93 134.316 71.454C133.943 70.978 133.756 70.292 133.756 69.396V65.154H135.142V69.214C135.142 69.8207 135.25 70.2687 135.464 70.558C135.688 70.838 136.057 70.978 136.57 70.978C136.934 70.978 137.261 70.8893 137.55 70.712C137.84 70.5347 138.152 70.2453 138.488 69.844V65.154H139.874V72H138.74L138.628 70.866H138.572C138.236 71.2487 137.868 71.5613 137.466 71.804C137.074 72.0467 136.617 72.168 136.094 72.168ZM143.061 72V65.154H144.209L144.321 66.75H144.363C144.718 66.19 145.152 65.756 145.665 65.448C146.178 65.14 146.738 64.986 147.345 64.986C147.606 64.986 147.844 65.0093 148.059 65.056C148.274 65.1027 148.484 65.1727 148.689 65.266L148.381 66.456C148.148 66.372 147.947 66.316 147.779 66.288C147.611 66.2507 147.396 66.232 147.135 66.232C146.64 66.232 146.164 66.372 145.707 66.652C145.25 66.932 144.83 67.4173 144.447 68.108V72H143.061ZM162.202 72.168C161.558 72.168 160.942 72.0607 160.354 71.846C159.766 71.6313 159.267 71.384 158.856 71.104L159.472 70.208C159.873 70.488 160.307 70.7073 160.774 70.866C161.25 71.0247 161.787 71.104 162.384 71.104C162.907 71.104 163.294 71.0107 163.546 70.824C163.807 70.6373 163.938 70.418 163.938 70.166C163.938 70.0447 163.91 69.9327 163.854 69.83C163.807 69.7273 163.714 69.634 163.574 69.55C163.443 69.4567 163.243 69.368 162.972 69.284C162.711 69.2 162.365 69.1113 161.936 69.018C161.031 68.8313 160.359 68.5747 159.92 68.248C159.491 67.9213 159.276 67.5013 159.276 66.988C159.276 66.4093 159.523 65.9333 160.018 65.56C160.522 65.1773 161.25 64.986 162.202 64.986C162.743 64.986 163.257 65.0793 163.742 65.266C164.237 65.4433 164.657 65.6487 165.002 65.882L164.358 66.75C164.031 66.5353 163.672 66.3673 163.28 66.246C162.897 66.1153 162.496 66.05 162.076 66.05C161.731 66.05 161.455 66.092 161.25 66.176C161.045 66.2507 160.895 66.3533 160.802 66.484C160.709 66.6147 160.662 66.7593 160.662 66.918C160.662 67.1793 160.807 67.3847 161.096 67.534C161.395 67.674 161.875 67.814 162.538 67.954C163.285 68.1127 163.859 68.29 164.26 68.486C164.671 68.682 164.951 68.9107 165.1 69.172C165.259 69.424 165.338 69.7273 165.338 70.082C165.338 70.4647 165.217 70.8147 164.974 71.132C164.731 71.4493 164.377 71.7013 163.91 71.888C163.453 72.0747 162.883 72.168 162.202 72.168ZM167.041 72V65.154H168.133L168.245 66.05H168.273C168.441 65.742 168.641 65.49 168.875 65.294C169.108 65.0887 169.421 64.986 169.812 64.986C170.139 64.986 170.41 65.084 170.625 65.28C170.839 65.476 170.989 65.77 171.073 66.162C171.259 65.8073 171.469 65.5227 171.703 65.308C171.945 65.0933 172.263 64.986 172.655 64.986C173.14 64.986 173.513 65.1727 173.775 65.546C174.045 65.9193 174.181 66.4467 174.181 67.128V72H172.823V67.226C172.823 66.526 172.613 66.176 172.193 66.176C171.987 66.176 171.815 66.2553 171.675 66.414C171.535 66.5727 171.381 66.8107 171.213 67.128V72H170.008V67.226C170.008 66.8807 169.957 66.6193 169.855 66.442C169.761 66.2647 169.607 66.176 169.393 66.176C169.187 66.176 169.005 66.2553 168.847 66.414C168.697 66.5727 168.548 66.8107 168.399 67.128V72H167.041ZM178.081 72.168C177.642 72.168 177.246 72.0887 176.891 71.93C176.546 71.762 176.27 71.5333 176.065 71.244C175.869 70.9453 175.771 70.5953 175.771 70.194C175.771 69.4287 176.144 68.8453 176.891 68.444C177.647 68.0427 178.884 67.7767 180.601 67.646C180.592 67.366 180.526 67.1093 180.405 66.876C180.293 66.6427 180.111 66.4607 179.859 66.33C179.616 66.19 179.294 66.12 178.893 66.12C178.613 66.12 178.338 66.1573 178.067 66.232C177.796 66.2973 177.535 66.3907 177.283 66.512C177.031 66.6333 176.793 66.7593 176.569 66.89L176.051 65.952C176.303 65.8027 176.592 65.6533 176.919 65.504C177.246 65.3453 177.596 65.2193 177.969 65.126C178.352 65.0327 178.739 64.986 179.131 64.986C179.766 64.986 180.293 65.1027 180.713 65.336C181.133 65.5693 181.45 65.9007 181.665 66.33C181.88 66.7593 181.987 67.2773 181.987 67.884V72H180.853L180.741 71.118H180.699C180.335 71.398 179.924 71.6453 179.467 71.86C179.01 72.0653 178.548 72.168 178.081 72.168ZM178.473 71.062C178.837 71.062 179.196 70.9827 179.551 70.824C179.906 70.6653 180.256 70.4413 180.601 70.152V68.528C179.705 68.5933 179 68.696 178.487 68.836C177.983 68.976 177.628 69.1533 177.423 69.368C177.218 69.5733 177.115 69.816 177.115 70.096C177.115 70.32 177.176 70.5067 177.297 70.656C177.428 70.796 177.596 70.8987 177.801 70.964C178.006 71.0293 178.23 71.062 178.473 71.062ZM185.034 72V65.154H186.182L186.294 66.75H186.336C186.69 66.19 187.124 65.756 187.638 65.448C188.151 65.14 188.711 64.986 189.318 64.986C189.579 64.986 189.817 65.0093 190.032 65.056C190.246 65.1027 190.456 65.1727 190.662 65.266L190.354 66.456C190.12 66.372 189.92 66.316 189.752 66.288C189.584 66.2507 189.369 66.232 189.108 66.232C188.613 66.232 188.137 66.372 187.68 66.652C187.222 66.932 186.802 67.4173 186.42 68.108V72H185.034ZM196.998 72.168C196.307 72.168 195.761 72.0467 195.36 71.804C194.968 71.5613 194.688 71.2253 194.52 70.796C194.352 70.3667 194.268 69.8673 194.268 69.298V66.274H192.392V65.238L194.324 65.154L194.506 62.998H195.654V65.154H198.888V66.274H195.654V69.298C195.654 69.6807 195.705 70.0073 195.808 70.278C195.911 70.5393 196.083 70.7353 196.326 70.866C196.569 70.9873 196.895 71.048 197.306 71.048C197.614 71.048 197.894 71.0247 198.146 70.978C198.398 70.922 198.641 70.852 198.874 70.768L199.154 71.776C198.846 71.8787 198.515 71.9673 198.16 72.042C197.815 72.126 197.427 72.168 196.998 72.168ZM213.115 72.168C212.406 72.168 211.766 72.028 211.197 71.748C210.628 71.468 210.175 71.062 209.839 70.53C209.512 69.9887 209.349 69.34 209.349 68.584C209.349 67.828 209.526 67.184 209.881 66.652C210.236 66.1107 210.702 65.7 211.281 65.42C211.869 65.1307 212.508 64.986 213.199 64.986C213.759 64.986 214.249 65.084 214.669 65.28C215.089 65.4667 215.439 65.6953 215.719 65.966L215.047 66.848C214.767 66.624 214.482 66.4513 214.193 66.33C213.913 66.1993 213.605 66.134 213.269 66.134C212.784 66.134 212.35 66.2367 211.967 66.442C211.594 66.6473 211.3 66.9367 211.085 67.31C210.88 67.674 210.777 68.0987 210.777 68.584C210.777 69.0787 210.88 69.508 211.085 69.872C211.29 70.236 211.575 70.5207 211.939 70.726C212.312 70.9313 212.742 71.034 213.227 71.034C213.638 71.034 214.011 70.9547 214.347 70.796C214.683 70.6373 214.986 70.446 215.257 70.222L215.859 71.118C215.476 71.454 215.047 71.7153 214.571 71.902C214.104 72.0793 213.619 72.168 213.115 72.168ZM220.88 72.168C220.282 72.168 219.722 72.028 219.2 71.748C218.686 71.468 218.266 71.062 217.94 70.53C217.622 69.9887 217.464 69.34 217.464 68.584C217.464 67.828 217.622 67.184 217.94 66.652C218.266 66.1107 218.686 65.7 219.2 65.42C219.722 65.1307 220.282 64.986 220.88 64.986C221.477 64.986 222.032 65.1307 222.546 65.42C223.068 65.7 223.488 66.1107 223.806 66.652C224.132 67.184 224.296 67.828 224.296 68.584C224.296 69.34 224.132 69.9887 223.806 70.53C223.488 71.062 223.068 71.468 222.546 71.748C222.032 72.028 221.477 72.168 220.88 72.168ZM220.88 71.034C221.281 71.034 221.631 70.9313 221.93 70.726C222.228 70.5207 222.457 70.236 222.616 69.872C222.784 69.508 222.868 69.0787 222.868 68.584C222.868 68.0987 222.784 67.674 222.616 67.31C222.457 66.9367 222.228 66.6473 221.93 66.442C221.631 66.2367 221.281 66.134 220.88 66.134C220.478 66.134 220.128 66.2367 219.83 66.442C219.531 66.6473 219.298 66.9367 219.13 67.31C218.971 67.674 218.892 68.0987 218.892 68.584C218.892 69.0787 218.971 69.508 219.13 69.872C219.298 70.236 219.531 70.5207 219.83 70.726C220.128 70.9313 220.478 71.034 220.88 71.034ZM226.306 72V65.154H227.44L227.552 66.26H227.608C227.954 65.9053 228.327 65.6067 228.728 65.364C229.13 65.112 229.596 64.986 230.128 64.986C230.922 64.986 231.505 65.2287 231.878 65.714C232.261 66.19 232.452 66.8713 232.452 67.758V72H231.066V67.94C231.066 67.3427 230.954 66.904 230.73 66.624C230.516 66.3347 230.152 66.19 229.638 66.19C229.274 66.19 228.948 66.2833 228.658 66.47C228.369 66.6473 228.047 66.918 227.692 67.282V72H226.306ZM238.971 72.168C238.28 72.168 237.734 72.0467 237.333 71.804C236.941 71.5613 236.661 71.2253 236.493 70.796C236.325 70.3667 236.241 69.8673 236.241 69.298V66.274H234.365V65.238L236.297 65.154L236.479 62.998H237.627V65.154H240.861V66.274H237.627V69.298C237.627 69.6807 237.678 70.0073 237.781 70.278C237.883 70.5393 238.056 70.7353 238.299 70.866C238.541 70.9873 238.868 71.048 239.279 71.048C239.587 71.048 239.867 71.0247 240.119 70.978C240.371 70.922 240.613 70.852 240.847 70.768L241.127 71.776C240.819 71.8787 240.487 71.9673 240.133 72.042C239.787 72.126 239.4 72.168 238.971 72.168ZM243.795 72V65.154H244.943L245.055 66.75H245.097C245.452 66.19 245.886 65.756 246.399 65.448C246.913 65.14 247.473 64.986 248.079 64.986C248.341 64.986 248.579 65.0093 248.793 65.056C249.008 65.1027 249.218 65.1727 249.423 65.266L249.115 66.456C248.882 66.372 248.681 66.316 248.513 66.288C248.345 66.2507 248.131 66.232 247.869 66.232C247.375 66.232 246.899 66.372 246.441 66.652C245.984 66.932 245.564 67.4173 245.181 68.108V72H243.795ZM253.632 72.168C253.193 72.168 252.796 72.0887 252.442 71.93C252.096 71.762 251.821 71.5333 251.616 71.244C251.42 70.9453 251.322 70.5953 251.322 70.194C251.322 69.4287 251.695 68.8453 252.442 68.444C253.198 68.0427 254.434 67.7767 256.152 67.646C256.142 67.366 256.077 67.1093 255.956 66.876C255.844 66.6427 255.662 66.4607 255.41 66.33C255.167 66.19 254.845 66.12 254.444 66.12C254.164 66.12 253.888 66.1573 253.618 66.232C253.347 66.2973 253.086 66.3907 252.834 66.512C252.582 66.6333 252.344 66.7593 252.12 66.89L251.602 65.952C251.854 65.8027 252.143 65.6533 252.47 65.504C252.796 65.3453 253.146 65.2193 253.52 65.126C253.902 65.0327 254.29 64.986 254.682 64.986C255.316 64.986 255.844 65.1027 256.264 65.336C256.684 65.5693 257.001 65.9007 257.216 66.33C257.43 66.7593 257.538 67.2773 257.538 67.884V72H256.404L256.292 71.118H256.25C255.886 71.398 255.475 71.6453 255.018 71.86C254.56 72.0653 254.098 72.168 253.632 72.168ZM254.024 71.062C254.388 71.062 254.747 70.9827 255.102 70.824C255.456 70.6653 255.806 70.4413 256.152 70.152V68.528C255.256 68.5933 254.551 68.696 254.038 68.836C253.534 68.976 253.179 69.1533 252.974 69.368C252.768 69.5733 252.666 69.816 252.666 70.096C252.666 70.32 252.726 70.5067 252.848 70.656C252.978 70.796 253.146 70.8987 253.352 70.964C253.557 71.0293 253.781 71.062 254.024 71.062ZM263.482 72.168C262.773 72.168 262.134 72.028 261.564 71.748C260.995 71.468 260.542 71.062 260.206 70.53C259.88 69.9887 259.716 69.34 259.716 68.584C259.716 67.828 259.894 67.184 260.248 66.652C260.603 66.1107 261.07 65.7 261.648 65.42C262.236 65.1307 262.876 64.986 263.566 64.986C264.126 64.986 264.616 65.084 265.036 65.28C265.456 65.4667 265.806 65.6953 266.086 65.966L265.414 66.848C265.134 66.624 264.85 66.4513 264.56 66.33C264.28 66.1993 263.972 66.134 263.636 66.134C263.151 66.134 262.717 66.2367 262.334 66.442C261.961 66.6473 261.667 66.9367 261.452 67.31C261.247 67.674 261.144 68.0987 261.144 68.584C261.144 69.0787 261.247 69.508 261.452 69.872C261.658 70.236 261.942 70.5207 262.306 70.726C262.68 70.9313 263.109 71.034 263.594 71.034C264.005 71.034 264.378 70.9547 264.714 70.796C265.05 70.6373 265.354 70.446 265.624 70.222L266.226 71.118C265.844 71.454 265.414 71.7153 264.938 71.902C264.472 72.0793 263.986 72.168 263.482 72.168ZM272.549 72.168C271.858 72.168 271.312 72.0467 270.911 71.804C270.519 71.5613 270.239 71.2253 270.071 70.796C269.903 70.3667 269.819 69.8673 269.819 69.298V66.274H267.943V65.238L269.875 65.154L270.057 62.998H271.205V65.154H274.439V66.274H271.205V69.298C271.205 69.6807 271.256 70.0073 271.359 70.278C271.462 70.5393 271.634 70.7353 271.877 70.866C272.12 70.9873 272.446 71.048 272.857 71.048C273.165 71.048 273.445 71.0247 273.697 70.978C273.949 70.922 274.192 70.852 274.425 70.768L274.705 71.776C274.397 71.8787 274.066 71.9673 273.711 72.042C273.366 72.126 272.978 72.168 272.549 72.168ZM279.725 72.168C279.081 72.168 278.465 72.0607 277.877 71.846C277.289 71.6313 276.79 71.384 276.379 71.104L276.995 70.208C277.397 70.488 277.831 70.7073 278.297 70.866C278.773 71.0247 279.31 71.104 279.907 71.104C280.43 71.104 280.817 71.0107 281.069 70.824C281.331 70.6373 281.461 70.418 281.461 70.166C281.461 70.0447 281.433 69.9327 281.377 69.83C281.331 69.7273 281.237 69.634 281.097 69.55C280.967 69.4567 280.766 69.368 280.495 69.284C280.234 69.2 279.889 69.1113 279.459 69.018C278.554 68.8313 277.882 68.5747 277.443 68.248C277.014 67.9213 276.799 67.5013 276.799 66.988C276.799 66.4093 277.047 65.9333 277.541 65.56C278.045 65.1773 278.773 64.986 279.725 64.986C280.267 64.986 280.78 65.0793 281.265 65.266C281.76 65.4433 282.18 65.6487 282.525 65.882L281.881 66.75C281.555 66.5353 281.195 66.3673 280.803 66.246C280.421 66.1153 280.019 66.05 279.599 66.05C279.254 66.05 278.979 66.092 278.773 66.176C278.568 66.2507 278.419 66.3533 278.325 66.484C278.232 66.6147 278.185 66.7593 278.185 66.918C278.185 67.1793 278.33 67.3847 278.619 67.534C278.918 67.674 279.399 67.814 280.061 67.954C280.808 68.1127 281.382 68.29 281.783 68.486C282.194 68.682 282.474 68.9107 282.623 69.172C282.782 69.424 282.861 69.7273 282.861 70.082C282.861 70.4647 282.74 70.8147 282.497 71.132C282.255 71.4493 281.9 71.7013 281.433 71.888C280.976 72.0747 280.407 72.168 279.725 72.168ZM296.43 72.168C295.833 72.168 295.273 72.028 294.75 71.748C294.237 71.468 293.817 71.062 293.49 70.53C293.173 69.9887 293.014 69.34 293.014 68.584C293.014 67.828 293.173 67.184 293.49 66.652C293.817 66.1107 294.237 65.7 294.75 65.42C295.273 65.1307 295.833 64.986 296.43 64.986C297.028 64.986 297.583 65.1307 298.096 65.42C298.619 65.7 299.039 66.1107 299.356 66.652C299.683 67.184 299.846 67.828 299.846 68.584C299.846 69.34 299.683 69.9887 299.356 70.53C299.039 71.062 298.619 71.468 298.096 71.748C297.583 72.028 297.028 72.168 296.43 72.168ZM296.43 71.034C296.832 71.034 297.182 70.9313 297.48 70.726C297.779 70.5207 298.008 70.236 298.166 69.872C298.334 69.508 298.418 69.0787 298.418 68.584C298.418 68.0987 298.334 67.674 298.166 67.31C298.008 66.9367 297.779 66.6473 297.48 66.442C297.182 66.2367 296.832 66.134 296.43 66.134C296.029 66.134 295.679 66.2367 295.38 66.442C295.082 66.6473 294.848 66.9367 294.68 67.31C294.522 67.674 294.442 68.0987 294.442 68.584C294.442 69.0787 294.522 69.508 294.68 69.872C294.848 70.236 295.082 70.5207 295.38 70.726C295.679 70.9313 296.029 71.034 296.43 71.034ZM301.857 72V65.154H302.991L303.103 66.26H303.159C303.504 65.9053 303.878 65.6067 304.279 65.364C304.68 65.112 305.147 64.986 305.679 64.986C306.472 64.986 307.056 65.2287 307.429 65.714C307.812 66.19 308.003 66.8713 308.003 67.758V72H306.617V67.94C306.617 67.3427 306.505 66.904 306.281 66.624C306.066 66.3347 305.702 66.19 305.189 66.19C304.825 66.19 304.498 66.2833 304.209 66.47C303.92 66.6473 303.598 66.918 303.243 67.282V72H301.857ZM322.916 72.168C322.225 72.168 321.679 72.0467 321.278 71.804C320.886 71.5613 320.606 71.2253 320.438 70.796C320.27 70.3667 320.186 69.8673 320.186 69.298V66.274H318.31V65.238L320.242 65.154L320.424 62.998H321.572V65.154H324.806V66.274H321.572V69.298C321.572 69.6807 321.623 70.0073 321.726 70.278C321.829 70.5393 322.001 70.7353 322.244 70.866C322.487 70.9873 322.813 71.048 323.224 71.048C323.532 71.048 323.812 71.0247 324.064 70.978C324.316 70.922 324.559 70.852 324.792 70.768L325.072 71.776C324.764 71.8787 324.433 71.9673 324.078 72.042C323.733 72.126 323.345 72.168 322.916 72.168ZM330.009 72.168C329.411 72.168 328.851 72.028 328.329 71.748C327.815 71.468 327.395 71.062 327.069 70.53C326.751 69.9887 326.593 69.34 326.593 68.584C326.593 67.828 326.751 67.184 327.069 66.652C327.395 66.1107 327.815 65.7 328.329 65.42C328.851 65.1307 329.411 64.986 330.009 64.986C330.606 64.986 331.161 65.1307 331.675 65.42C332.197 65.7 332.617 66.1107 332.935 66.652C333.261 67.184 333.425 67.828 333.425 68.584C333.425 69.34 333.261 69.9887 332.935 70.53C332.617 71.062 332.197 71.468 331.675 71.748C331.161 72.028 330.606 72.168 330.009 72.168ZM330.009 71.034C330.41 71.034 330.76 70.9313 331.059 70.726C331.357 70.5207 331.586 70.236 331.745 69.872C331.913 69.508 331.997 69.0787 331.997 68.584C331.997 68.0987 331.913 67.674 331.745 67.31C331.586 66.9367 331.357 66.6473 331.059 66.442C330.76 66.2367 330.41 66.134 330.009 66.134C329.607 66.134 329.257 66.2367 328.959 66.442C328.66 66.6473 328.427 66.9367 328.259 67.31C328.1 67.674 328.021 68.0987 328.021 68.584C328.021 69.0787 328.1 69.508 328.259 69.872C328.427 70.236 328.66 70.5207 328.959 70.726C329.257 70.9313 329.607 71.034 330.009 71.034ZM36.2 93.168C35.6027 93.168 35.0427 93.028 34.52 92.748C34.0067 92.468 33.5867 92.062 33.26 91.53C32.9427 90.9887 32.784 90.34 32.784 89.584C32.784 88.828 32.9427 88.184 33.26 87.652C33.5867 87.1107 34.0067 86.7 34.52 86.42C35.0427 86.1307 35.6027 85.986 36.2 85.986C36.7973 85.986 37.3527 86.1307 37.866 86.42C38.3887 86.7 38.8087 87.1107 39.126 87.652C39.4527 88.184 39.616 88.828 39.616 89.584C39.616 90.34 39.4527 90.9887 39.126 91.53C38.8087 92.062 38.3887 92.468 37.866 92.748C37.3527 93.028 36.7973 93.168 36.2 93.168ZM36.2 92.034C36.6013 92.034 36.9513 91.9313 37.25 91.726C37.5487 91.5207 37.7773 91.236 37.936 90.872C38.104 90.508 38.188 90.0787 38.188 89.584C38.188 89.0987 38.104 88.674 37.936 88.31C37.7773 87.9367 37.5487 87.6473 37.25 87.442C36.9513 87.2367 36.6013 87.134 36.2 87.134C35.7987 87.134 35.4487 87.2367 35.15 87.442C34.8513 87.6473 34.618 87.9367 34.45 88.31C34.2913 88.674 34.212 89.0987 34.212 89.584C34.212 90.0787 34.2913 90.508 34.45 90.872C34.618 91.236 34.8513 91.5207 35.15 91.726C35.4487 91.9313 35.7987 92.034 36.2 92.034ZM43.7545 93.168C42.9519 93.168 42.3592 92.93 41.9765 92.454C41.6032 91.978 41.4165 91.292 41.4165 90.396V86.154H42.8025V90.214C42.8025 90.8207 42.9099 91.2687 43.1245 91.558C43.3485 91.838 43.7172 91.978 44.2305 91.978C44.5945 91.978 44.9212 91.8893 45.2105 91.712C45.4999 91.5347 45.8125 91.2453 46.1485 90.844V86.154H47.5345V93H46.4005L46.2885 91.866H46.2325C45.8965 92.2487 45.5279 92.5613 45.1265 92.804C44.7345 93.0467 44.2772 93.168 43.7545 93.168ZM50.7211 93V86.154H51.8691L51.9811 87.75H52.0231C52.3777 87.19 52.8117 86.756 53.3251 86.448C53.8384 86.14 54.3984 85.986 55.0051 85.986C55.2664 85.986 55.5044 86.0093 55.7191 86.056C55.9337 86.1027 56.1437 86.1727 56.3491 86.266L56.0411 87.456C55.8077 87.372 55.6071 87.316 55.4391 87.288C55.2711 87.2507 55.0564 87.232 54.7951 87.232C54.3004 87.232 53.8244 87.372 53.3671 87.652C52.9097 87.932 52.4897 88.4173 52.1071 89.108V93H50.7211ZM70.4081 93.168C69.6988 93.168 69.0595 93.028 68.4901 92.748C67.9208 92.468 67.4681 92.062 67.1321 91.53C66.8055 90.9887 66.6421 90.34 66.6421 89.584C66.6421 88.828 66.8195 88.184 67.1741 87.652C67.5288 87.1107 67.9955 86.7 68.5741 86.42C69.1621 86.1307 69.8015 85.986 70.4921 85.986C71.0521 85.986 71.5421 86.084 71.9621 86.28C72.3821 86.4667 72.7321 86.6953 73.0121 86.966L72.3401 87.848C72.0601 87.624 71.7755 87.4513 71.4861 87.33C71.2061 87.1993 70.8981 87.134 70.5621 87.134C70.0768 87.134 69.6428 87.2367 69.2601 87.442C68.8868 87.6473 68.5928 87.9367 68.3781 88.31C68.1728 88.674 68.0701 89.0987 68.0701 89.584C68.0701 90.0787 68.1728 90.508 68.3781 90.872C68.5835 91.236 68.8681 91.5207 69.2321 91.726C69.6055 91.9313 70.0348 92.034 70.5201 92.034C70.9308 92.034 71.3041 91.9547 71.6401 91.796C71.9761 91.6373 72.2795 91.446 72.5501 91.222L73.1521 92.118C72.7695 92.454 72.3401 92.7153 71.8641 92.902C71.3975 93.0793 70.9121 93.168 70.4081 93.168ZM75.2047 93V83.074H76.5907V85.706L76.5067 87.246H76.5487C76.8753 86.9007 77.2393 86.6067 77.6407 86.364C78.042 86.112 78.504 85.986 79.0267 85.986C79.8293 85.986 80.4173 86.2287 80.7907 86.714C81.164 87.19 81.3507 87.8713 81.3507 88.758V93H79.9647V88.94C79.9647 88.3427 79.8527 87.904 79.6287 87.624C79.414 87.3347 79.05 87.19 78.5367 87.19C78.1727 87.19 77.846 87.2833 77.5567 87.47C77.2673 87.6473 76.9453 87.918 76.5907 88.282V93H75.2047ZM85.7412 93.168C85.3025 93.168 84.9059 93.0887 84.5512 92.93C84.2059 92.762 83.9305 92.5333 83.7252 92.244C83.5292 91.9453 83.4312 91.5953 83.4312 91.194C83.4312 90.4287 83.8045 89.8453 84.5512 89.444C85.3072 89.0427 86.5439 88.7767 88.2612 88.646C88.2519 88.366 88.1865 88.1093 88.0652 87.876C87.9532 87.6427 87.7712 87.4607 87.5192 87.33C87.2765 87.19 86.9545 87.12 86.5532 87.12C86.2732 87.12 85.9979 87.1573 85.7272 87.232C85.4565 87.2973 85.1952 87.3907 84.9432 87.512C84.6912 87.6333 84.4532 87.7593 84.2292 87.89L83.7112 86.952C83.9632 86.8027 84.2525 86.6533 84.5792 86.504C84.9059 86.3453 85.2559 86.2193 85.6292 86.126C86.0119 86.0327 86.3992 85.986 86.7912 85.986C87.4259 85.986 87.9532 86.1027 88.3732 86.336C88.7932 86.5693 89.1105 86.9007 89.3252 87.33C89.5399 87.7593 89.6472 88.2773 89.6472 88.884V93H88.5132L88.4012 92.118H88.3592C87.9952 92.398 87.5845 92.6453 87.1272 92.86C86.6699 93.0653 86.2079 93.168 85.7412 93.168ZM86.1332 92.062C86.4972 92.062 86.8565 91.9827 87.2112 91.824C87.5659 91.6653 87.9159 91.4413 88.2612 91.152V89.528C87.3652 89.5933 86.6605 89.696 86.1472 89.836C85.6432 89.976 85.2885 90.1533 85.0832 90.368C84.8779 90.5733 84.7752 90.816 84.7752 91.096C84.7752 91.32 84.8359 91.5067 84.9572 91.656C85.0879 91.796 85.2559 91.8987 85.4612 91.964C85.6665 92.0293 85.8905 92.062 86.1332 92.062ZM95.0457 93V87.274H91.9797V86.154H96.4317V93H95.0457ZM95.6197 84.824C95.3211 84.824 95.0737 84.7353 94.8777 84.558C94.6817 84.3713 94.5837 84.1287 94.5837 83.83C94.5837 83.5313 94.6817 83.2933 94.8777 83.116C95.0737 82.9293 95.3211 82.836 95.6197 82.836C95.9184 82.836 96.1657 82.9293 96.3617 83.116C96.5577 83.2933 96.6557 83.5313 96.6557 83.83C96.6557 84.1287 96.5577 84.3713 96.3617 84.558C96.1657 84.7353 95.9184 84.824 95.6197 84.824ZM100.388 93V86.154H101.522L101.634 87.26H101.69C102.036 86.9053 102.409 86.6067 102.81 86.364C103.212 86.112 103.678 85.986 104.21 85.986C105.004 85.986 105.587 86.2287 105.96 86.714C106.343 87.19 106.534 87.8713 106.534 88.758V93H105.148V88.94C105.148 88.3427 105.036 87.904 104.812 87.624C104.598 87.3347 104.234 87.19 103.72 87.19C103.356 87.19 103.03 87.2833 102.74 87.47C102.451 87.6473 102.129 87.918 101.774 88.282V93H100.388ZM117.877 93V86.154H119.025L119.137 87.75H119.179C119.534 87.19 119.968 86.756 120.481 86.448C120.995 86.14 121.555 85.986 122.161 85.986C122.423 85.986 122.661 86.0093 122.875 86.056C123.09 86.1027 123.3 86.1727 123.505 86.266L123.197 87.456C122.964 87.372 122.763 87.316 122.595 87.288C122.427 87.2507 122.213 87.232 121.951 87.232C121.457 87.232 120.981 87.372 120.523 87.652C120.066 87.932 119.646 88.4173 119.263 89.108V93H117.877ZM128.96 93.168C128.269 93.168 127.639 93.028 127.07 92.748C126.51 92.468 126.067 92.0573 125.74 91.516C125.413 90.9747 125.25 90.326 125.25 89.57C125.25 88.8233 125.413 88.184 125.74 87.652C126.076 87.12 126.51 86.7093 127.042 86.42C127.574 86.1307 128.143 85.986 128.75 85.986C129.422 85.986 129.991 86.126 130.458 86.406C130.925 86.6767 131.279 87.0547 131.522 87.54C131.774 88.016 131.9 88.576 131.9 89.22C131.9 89.36 131.895 89.5 131.886 89.64C131.877 89.7707 131.863 89.8827 131.844 89.976H126.216V88.954H130.976L130.668 89.29C130.668 88.5527 130.5 88.002 130.164 87.638C129.828 87.2647 129.371 87.078 128.792 87.078C128.391 87.078 128.022 87.176 127.686 87.372C127.359 87.5587 127.098 87.8387 126.902 88.212C126.706 88.576 126.608 89.0287 126.608 89.57C126.608 90.13 126.715 90.5967 126.93 90.97C127.154 91.334 127.453 91.6093 127.826 91.796C128.209 91.9827 128.647 92.076 129.142 92.076C129.525 92.076 129.875 92.0247 130.192 91.922C130.509 91.81 130.822 91.6607 131.13 91.474L131.62 92.356C131.275 92.5893 130.878 92.7853 130.43 92.944C129.982 93.0933 129.492 93.168 128.96 93.168ZM136.808 96.094C136.164 96.094 135.604 96.0193 135.128 95.87C134.662 95.73 134.302 95.52 134.05 95.24C133.798 94.9693 133.672 94.6333 133.672 94.232C133.672 93.952 133.766 93.6813 133.952 93.42C134.139 93.168 134.414 92.944 134.778 92.748V92.692C134.601 92.58 134.438 92.4353 134.288 92.258C134.148 92.0807 134.078 91.8473 134.078 91.558C134.078 91.334 134.148 91.11 134.288 90.886C134.438 90.6527 134.638 90.4473 134.89 90.27V90.214C134.657 90.0367 134.456 89.7987 134.288 89.5C134.12 89.2013 134.036 88.8513 134.036 88.45C134.036 87.9367 134.162 87.498 134.414 87.134C134.676 86.77 135.012 86.49 135.422 86.294C135.842 86.0887 136.3 85.986 136.794 85.986C137.186 85.986 137.532 86.042 137.83 86.154H140.644V87.246H138.978C139.118 87.3953 139.235 87.582 139.328 87.806C139.431 88.0207 139.482 88.2493 139.482 88.492C139.482 88.996 139.361 89.4207 139.118 89.766C138.885 90.1113 138.563 90.3773 138.152 90.564C137.751 90.7413 137.298 90.83 136.794 90.83C136.626 90.83 136.444 90.8113 136.248 90.774C136.062 90.7367 135.875 90.6807 135.688 90.606C135.539 90.7087 135.422 90.816 135.338 90.928C135.254 91.04 135.212 91.1707 135.212 91.32C135.212 91.5627 135.329 91.7447 135.562 91.866C135.796 91.978 136.132 92.034 136.57 92.034H138.026C138.913 92.034 139.576 92.16 140.014 92.412C140.462 92.664 140.686 93.084 140.686 93.672C140.686 94.1107 140.528 94.512 140.21 94.876C139.893 95.2493 139.445 95.5433 138.866 95.758C138.288 95.982 137.602 96.094 136.808 96.094ZM136.794 89.934C137.056 89.934 137.294 89.878 137.508 89.766C137.723 89.6447 137.896 89.472 138.026 89.248C138.157 89.024 138.222 88.758 138.222 88.45C138.222 88.1513 138.157 87.8947 138.026 87.68C137.896 87.456 137.723 87.2833 137.508 87.162C137.294 87.0313 137.056 86.966 136.794 86.966C136.533 86.966 136.29 87.0313 136.066 87.162C135.852 87.2833 135.679 87.456 135.548 87.68C135.418 87.8947 135.352 88.1513 135.352 88.45C135.352 88.758 135.418 89.024 135.548 89.248C135.679 89.472 135.852 89.6447 136.066 89.766C136.29 89.878 136.533 89.934 136.794 89.934ZM136.948 95.128C137.443 95.128 137.868 95.0673 138.222 94.946C138.577 94.834 138.848 94.6847 139.034 94.498C139.23 94.3207 139.328 94.1247 139.328 93.91C139.328 93.602 139.207 93.3967 138.964 93.294C138.722 93.2007 138.358 93.154 137.872 93.154H136.654C136.44 93.154 136.248 93.1447 136.08 93.126C135.912 93.1073 135.758 93.0793 135.618 93.042C135.329 93.2007 135.124 93.364 135.002 93.532C134.89 93.7093 134.834 93.8867 134.834 94.064C134.834 94.3907 135.016 94.6473 135.38 94.834C135.744 95.03 136.267 95.128 136.948 95.128ZM145.413 93V87.274H142.347V86.154H146.799V93H145.413ZM145.987 84.824C145.688 84.824 145.441 84.7353 145.245 84.558C145.049 84.3713 144.951 84.1287 144.951 83.83C144.951 83.5313 145.049 83.2933 145.245 83.116C145.441 82.9293 145.688 82.836 145.987 82.836C146.286 82.836 146.533 82.9293 146.729 83.116C146.925 83.2933 147.023 83.5313 147.023 83.83C147.023 84.1287 146.925 84.3713 146.729 84.558C146.533 84.7353 146.286 84.824 145.987 84.824ZM153.807 93.168C153.163 93.168 152.547 93.0607 151.959 92.846C151.371 92.6313 150.872 92.384 150.461 92.104L151.077 91.208C151.479 91.488 151.913 91.7073 152.379 91.866C152.855 92.0247 153.392 92.104 153.989 92.104C154.512 92.104 154.899 92.0107 155.151 91.824C155.413 91.6373 155.543 91.418 155.543 91.166C155.543 91.0447 155.515 90.9327 155.459 90.83C155.413 90.7273 155.319 90.634 155.179 90.55C155.049 90.4567 154.848 90.368 154.577 90.284C154.316 90.2 153.971 90.1113 153.541 90.018C152.636 89.8313 151.964 89.5747 151.525 89.248C151.096 88.9213 150.881 88.5013 150.881 87.988C150.881 87.4093 151.129 86.9333 151.623 86.56C152.127 86.1773 152.855 85.986 153.807 85.986C154.349 85.986 154.862 86.0793 155.347 86.266C155.842 86.4433 156.262 86.6487 156.607 86.882L155.963 87.75C155.637 87.5353 155.277 87.3673 154.885 87.246C154.503 87.1153 154.101 87.05 153.681 87.05C153.336 87.05 153.061 87.092 152.855 87.176C152.65 87.2507 152.501 87.3533 152.407 87.484C152.314 87.6147 152.267 87.7593 152.267 87.918C152.267 88.1793 152.412 88.3847 152.701 88.534C153 88.674 153.481 88.814 154.143 88.954C154.89 89.1127 155.464 89.29 155.865 89.486C156.276 89.682 156.556 89.9107 156.705 90.172C156.864 90.424 156.943 90.7273 156.943 91.082C156.943 91.4647 156.822 91.8147 156.579 92.132C156.337 92.4493 155.982 92.7013 155.515 92.888C155.058 93.0747 154.489 93.168 153.807 93.168ZM163.42 93.168C162.729 93.168 162.183 93.0467 161.782 92.804C161.39 92.5613 161.11 92.2253 160.942 91.796C160.774 91.3667 160.69 90.8673 160.69 90.298V87.274H158.814V86.238L160.746 86.154L160.928 83.998H162.076V86.154H165.31V87.274H162.076V90.298C162.076 90.6807 162.127 91.0073 162.23 91.278C162.333 91.5393 162.505 91.7353 162.748 91.866C162.991 91.9873 163.317 92.048 163.728 92.048C164.036 92.048 164.316 92.0247 164.568 91.978C164.82 91.922 165.063 91.852 165.296 91.768L165.576 92.776C165.268 92.8787 164.937 92.9673 164.582 93.042C164.237 93.126 163.849 93.168 163.42 93.168ZM168.245 93V86.154H169.393L169.505 87.75H169.547C169.901 87.19 170.335 86.756 170.849 86.448C171.362 86.14 171.922 85.986 172.529 85.986C172.79 85.986 173.028 86.0093 173.243 86.056C173.457 86.1027 173.667 86.1727 173.873 86.266L173.565 87.456C173.331 87.372 173.131 87.316 172.963 87.288C172.795 87.2507 172.58 87.232 172.319 87.232C171.824 87.232 171.348 87.372 170.891 87.652C170.433 87.932 170.013 88.4173 169.631 89.108V93H168.245ZM176.583 95.87C176.415 95.87 176.247 95.856 176.079 95.828C175.911 95.8 175.766 95.7673 175.645 95.73L175.925 94.652C176.009 94.68 176.102 94.7033 176.205 94.722C176.308 94.7407 176.41 94.75 176.513 94.75C176.97 94.75 177.339 94.624 177.619 94.372C177.899 94.12 178.118 93.8073 178.277 93.434L178.459 92.958L175.337 86.154H176.723L178.263 89.724C178.384 90.032 178.51 90.3587 178.641 90.704C178.781 91.04 178.921 91.3807 179.061 91.726H179.117C179.229 91.3993 179.346 91.0633 179.467 90.718C179.588 90.3633 179.705 90.032 179.817 89.724L181.175 86.154H182.491L179.565 93.434C179.388 93.9193 179.168 94.344 178.907 94.708C178.646 95.072 178.324 95.3567 177.941 95.562C177.568 95.7673 177.115 95.87 176.583 95.87Z"/><rect width="395" height="213" x=".5" y=".5" stroke="#3F3F3F" rx="11.5"/></svg>