<svg width="19" height="19" viewBox="0 0 19 19" fill="none" xmlns="http://www.w3.org/2000/svg">
<path d="M10.7 12.625C10.9333 12.625 11.1417 12.5375 11.325 12.3625C11.5083 12.1875 11.6 11.9833 11.6 11.75C11.6 11.5 11.5083 11.2875 11.325 11.1125C11.1417 10.9375 10.9333 10.85 10.7 10.85C10.45 10.85 10.2375 10.9375 10.0625 11.1125C9.8875 11.2875 9.8 11.5 9.8 11.75C9.8 11.9833 9.8875 12.1875 10.0625 12.3625C10.2375 12.5375 10.45 12.625 10.7 12.625ZM10.175 9.675H11.15C11.1667 9.20833 11.2333 8.8625 11.35 8.6375C11.4667 8.4125 11.7417 8.1 12.175 7.7C12.6083 7.3 12.9083 6.94167 13.075 6.625C13.2417 6.30833 13.325 5.94167 13.325 5.525C13.325 4.80833 13.075 4.21667 12.575 3.75C12.075 3.28333 11.425 3.05 10.625 3.05C10.0417 3.05 9.52083 3.20417 9.0625 3.5125C8.60417 3.82083 8.25833 4.25833 8.025 4.825L8.925 5.225C9.125 4.80833 9.3625 4.5 9.6375 4.3C9.9125 4.1 10.2417 4 10.625 4C11.1417 4 11.5625 4.14583 11.8875 4.4375C12.2125 4.72917 12.375 5.1 12.375 5.55C12.375 5.86667 12.2958 6.15417 12.1375 6.4125C11.9792 6.67083 11.7083 6.95 11.325 7.25C10.8417 7.68333 10.5292 8.05 10.3875 8.35C10.2458 8.65 10.175 9.09167 10.175 9.675ZM4.2 15.725C3.81667 15.725 3.48333 15.5833 3.2 15.3C2.91667 15.0167 2.775 14.6833 2.775 14.3V1.45C2.775 1.05 2.91667 0.708333 3.2 0.425C3.48333 0.141667 3.81667 0 4.2 0H17.05C17.45 0 17.7917 0.141667 18.075 0.425C18.3583 0.708333 18.5 1.05 18.5 1.45V14.3C18.5 14.6833 18.3583 15.0167 18.075 15.3C17.7917 15.5833 17.45 15.725 17.05 15.725H4.2ZM1.45 18.5C1.05 18.5 0.708333 18.3583 0.425 18.075C0.141667 17.7917 0 17.45 0 17.05V3.075H1.125V17.05C1.125 17.1333 1.15833 17.2083 1.225 17.275C1.29167 17.3417 1.36667 17.375 1.45 17.375H15.425V18.5H1.45Z" fill="#C29AFE"/>
</svg>
