<svg width="41" height="41" viewBox="0 0 41 41" fill="none" xmlns="http://www.w3.org/2000/svg">
<path d="M0.408203 5.1112C0.408203 2.52567 2.24303 0.429688 4.50641 0.429688H36.2675C38.5309 0.429688 40.3657 2.52567 40.3657 5.1112V35.541C40.3657 38.1266 38.5309 40.2226 36.2675 40.2226H4.50641C2.24303 40.2226 0.408203 38.1266 0.408203 35.541V5.1112Z" fill="white" fill-opacity="0.9"/>
<g style="mix-blend-mode:multiply">
<path d="M0.408203 5.1112C0.408203 2.52567 2.24303 0.429688 4.50641 0.429688H36.2675C38.5309 0.429688 40.3657 2.52567 40.3657 5.1112V35.541C40.3657 38.1266 38.5309 40.2226 36.2675 40.2226H4.50641C2.24303 40.2226 0.408203 38.1266 0.408203 35.541V5.1112Z" fill="url(#paint0_linear_719_3922)"/>
</g>
<path d="M5.01953 23.5528C5.01953 22.6618 5.93695 21.9396 7.06864 21.9396H33.707C34.8387 21.9396 35.7561 22.6618 35.7561 23.5528V33.2321C35.7561 34.1231 34.8387 34.8454 33.707 34.8454H7.06864C5.93695 34.8454 5.01953 34.1231 5.01953 33.2321V23.5528Z" fill="white" fill-opacity="0.4"/>
<rect x="3.15332" y="5.91833" width="34.3042" height="8.23301" rx="4.1165" fill="white" fill-opacity="0.4"/>
<defs>
<linearGradient id="paint0_linear_719_3922" x1="29.2648" y1="4.51101" x2="-5.46474" y2="32.6543" gradientUnits="userSpaceOnUse">
<stop stop-color="#BFA3DA"/>
<stop offset="0.416667" stop-color="#84309C"/>
<stop offset="1" stop-color="#C735B0"/>
</linearGradient>
</defs>
</svg>
