<svg xmlns="http://www.w3.org/2000/svg" xmlns:xlink="http://www.w3.org/1999/xlink" fill="#fff" fill-rule="evenodd" stroke="#000" stroke-linecap="round" stroke-linejoin="round" viewBox="0 0 74.375 85"><use x="2.188" y="2.5" xlink:href="#A"/><symbol id="A" overflow="visible"><g stroke="none"><path fill="#759c3e" d="M14.78 25.015l-7.749-1.108V13.246l10.469 2.75-2.72 9.019z"/><path fill="#4b612c" d="M15.314 26.385L0 27.687V16.57l7.031-3.324 8.283 13.139zm39.916-1.37l7.749-1.108V13.246l-10.48 2.75 2.73 9.019z"/><path fill="#759c3e" d="M54.686 26.385L70 27.687V16.57l-7.02-3.324-8.293 13.139z"/><path fill="#4b612c" d="M20.21 6.997l-8.016 15.481h0L0 25.938v9.883l14.123 28.708L35 80l14.503-17.162V14.84L35 0 20.21 6.997z"/><path fill="#759c3e" d="M70 35.821v-9.883l-12.193-3.46h0L49.79 6.997 35 0v15.996 48.008V80l20.877-15.471L70 35.821z"/></g></symbol></svg>