<svg xmlns="http://www.w3.org/2000/svg" width="32" height="32" fill="none" viewBox="0 0 32 32"><circle cx="16" cy="16" r="16" fill="url(#paint0_linear_2103_3904)"/><rect width="4" height="3" x="14" y="22" fill="#E6DEFC"/><path fill="#000" d="M11 26C10.45 26 9.979 25.8218 9.587 25.4655C9.195 25.1091 8.99934 24.6812 9 24.1818V7.81818C9 7.31818 9.196 6.89 9.588 6.53364C9.98 6.17727 10.4507 5.9994 11 6H21C21.55 6 22.021 6.17818 22.413 6.53455C22.805 6.89091 23.0007 7.31879 23 7.81818V24.1818C23 24.6818 22.804 25.11 22.412 25.4664C22.02 25.8227 21.5493 26.0006 21 26H11ZM16 23.7273C16.2833 23.7273 16.521 23.64 16.713 23.4655C16.905 23.2909 17.0007 23.0751 17 22.8182C17 22.5606 16.904 22.3445 16.712 22.17C16.52 21.9955 16.2827 21.9085 16 21.9091C15.7167 21.9091 15.479 21.9964 15.287 22.1709C15.095 22.3455 14.9993 22.5612 15 22.8182C15 23.0758 15.096 23.2918 15.288 23.4664C15.48 23.6409 15.7173 23.7279 16 23.7273ZM11 17.6364C11 18.7409 11.8954 19.6364 13 19.6364H19C20.1046 19.6364 21 18.7409 21 17.6364V12.5455C21 11.4409 20.1046 10.5455 19 10.5455H13C11.8954 10.5455 11 11.4409 11 12.5455V17.6364Z"/><path fill="url(#paint1_linear_2103_3904)" d="M11 26C10.45 26 9.979 25.8218 9.587 25.4655C9.195 25.1091 8.99934 24.6812 9 24.1818V7.81818C9 7.31818 9.196 6.89 9.588 6.53364C9.98 6.17727 10.4507 5.9994 11 6H21C21.55 6 22.021 6.17818 22.413 6.53455C22.805 6.89091 23.0007 7.31879 23 7.81818V24.1818C23 24.6818 22.804 25.11 22.412 25.4664C22.02 25.8227 21.5493 26.0006 21 26H11ZM16 23.7273C16.2833 23.7273 16.521 23.64 16.713 23.4655C16.905 23.2909 17.0007 23.0751 17 22.8182C17 22.5606 16.904 22.3445 16.712 22.17C16.52 21.9955 16.2827 21.9085 16 21.9091C15.7167 21.9091 15.479 21.9964 15.287 22.1709C15.095 22.3455 14.9993 22.5612 15 22.8182C15 23.0758 15.096 23.2918 15.288 23.4664C15.48 23.6409 15.7173 23.7279 16 23.7273ZM11 17.6364C11 18.7409 11.8954 19.6364 13 19.6364H19C20.1046 19.6364 21 18.7409 21 17.6364V12.5455C21 11.4409 20.1046 10.5455 19 10.5455H13C11.8954 10.5455 11 11.4409 11 12.5455V17.6364Z"/><rect width="10" height="16" x="11" y="8" fill="#BB0FAE" rx="1.5"/><rect width="6" height="2" x="13" y="9" fill="#F8F5FF" rx="1"/><defs><linearGradient id="paint0_linear_2103_3904" x1="15" x2="15" y1="0" y2="35.5" gradientUnits="userSpaceOnUse"><stop stop-color="#D311AA"/><stop offset="1" stop-color="#8409B7"/></linearGradient><linearGradient id="paint1_linear_2103_3904" x1="16" x2="16" y1="6" y2="26" gradientUnits="userSpaceOnUse"><stop stop-color="#fff"/><stop offset="1" stop-color="#E1D8FB"/></linearGradient></defs></svg>