<svg xmlns="http://www.w3.org/2000/svg" width="176" height="176" fill="none" viewBox="0 0 176 176"><g clip-path="url(#clip0_1704_1422)"><path fill="#2461ED" d="M176 0H0V176H176V0Z"/><path fill="#fff" fill-rule="evenodd" d="M100.663 85.6539C83.4079 76.3296 62.413 64.2379 46.6117 54.3822C41.9495 51.0234 44.3157 43.8948 49.9504 43.8948H128.135C132.496 43.8948 135.414 48.7575 133.228 52.4371C127.974 61.5108 120.304 73.0309 113.898 82.1648C110.459 87.0676 104.854 87.9098 100.663 85.6539ZM75.4971 88.6817C92.1807 97.5749 115.562 111.1 132.175 121.327C137.319 124.495 135.263 132.095 129.268 132.095C119.457 132.095 103.514 132.098 87.6539 132.1C71.9577 132.103 56.3426 132.105 46.8322 132.105C42.0397 132.105 39.5833 127.132 41.6186 123.663C48.4966 111.942 56.2268 100.112 62.6536 91.2785C65.511 87.3382 71.3262 86.4559 75.4971 88.6817Z" clip-rule="evenodd"/></g><defs><clipPath id="clip0_1704_1422"><rect width="176" height="176" fill="#fff"/></clipPath></defs></svg>